<svg width="13" height="13" viewBox="0 0 13 13" fill="none" xmlns="http://www.w3.org/2000/svg">
<path fill-rule="evenodd" clip-rule="evenodd" d="M3.32378 0.0996094C3.11161 0.0996094 2.90812 0.183895 2.75809 0.333924C2.60806 0.483953 2.52378 0.687436 2.52378 0.899609V1.69961H1.72378C1.29943 1.69961 0.892467 1.86818 0.592408 2.16824C0.29235 2.4683 0.123779 2.87526 0.123779 3.29961V11.2996C0.123779 11.724 0.29235 12.1309 0.592408 12.431C0.892467 12.731 1.29943 12.8996 1.72378 12.8996H11.3238C11.7481 12.8996 12.1551 12.731 12.4551 12.431C12.7552 12.1309 12.9238 11.724 12.9238 11.2996V3.29961C12.9238 2.87526 12.7552 2.4683 12.4551 2.16824C12.1551 1.86818 11.7481 1.69961 11.3238 1.69961H10.5238V0.899609C10.5238 0.687436 10.4395 0.483953 10.2895 0.333924C10.1394 0.183895 9.93595 0.0996094 9.72378 0.0996094C9.51161 0.0996094 9.30812 0.183895 9.15809 0.333924C9.00807 0.483953 8.92378 0.687436 8.92378 0.899609V1.69961H4.12378V0.899609C4.12378 0.687436 4.03949 0.483953 3.88946 0.333924C3.73944 0.183895 3.53595 0.0996094 3.32378 0.0996094ZM3.32378 4.09961C3.11161 4.09961 2.90812 4.1839 2.75809 4.33392C2.60806 4.48395 2.52378 4.68744 2.52378 4.89961C2.52378 5.11178 2.60806 5.31527 2.75809 5.46529C2.90812 5.61532 3.11161 5.69961 3.32378 5.69961H9.72378C9.93595 5.69961 10.1394 5.61532 10.2895 5.46529C10.4395 5.31527 10.5238 5.11178 10.5238 4.89961C10.5238 4.68744 10.4395 4.48395 10.2895 4.33392C10.1394 4.1839 9.93595 4.09961 9.72378 4.09961H3.32378Z" fill="#F3F4F6"/>
</svg>
