<svg width="15" height="15" viewBox="0 0 15 15" fill="none" xmlns="http://www.w3.org/2000/svg">
<path d="M0.930799 4.96484H13.9308M3.9308 0.964844V1.96484M10.9308 0.964844V1.96484M2.9308 7.96484H4.9308M2.9308 10.9648H4.9308M6.9308 7.96484H7.9308M6.9308 10.9648H7.9308M9.9308 7.96484H11.9308M9.9308 10.9648H11.9308M2.9308 13.9648H11.9308C12.7311 13.9648 12.6251 14.1214 12.9308 13.9648C13.1997 13.8271 13.7938 13.2352 13.9308 12.9648C14.0866 12.6575 13.9308 12.7695 13.9308 11.9648V4.96484C13.9308 4.16021 14.0866 3.27217 13.9308 2.96484C13.7938 2.69451 13.1997 3.10258 12.9308 2.96484C12.6251 2.80825 12.7311 1.96484 11.9308 1.96484H2.9308C2.13045 1.96484 2.23649 2.80825 1.9308 2.96484C1.6619 3.10258 1.0678 2.69451 0.930799 2.96484C0.775039 3.27217 0.930799 4.16021 0.930799 4.96484V11.9648C0.930799 12.7695 0.775039 12.6575 0.930799 12.9648C1.0678 13.2352 1.6619 13.8271 1.9308 13.9648C2.23649 14.1214 2.13045 13.9648 2.9308 13.9648Z" stroke="#656675" stroke-linecap="round" stroke-linejoin="round"/>
</svg>
