<svg width="16" height="19" viewBox="0 0 16 19" fill="none" xmlns="http://www.w3.org/2000/svg">
<path d="M6.6875 17.833H1C1 14.7311 3.28174 12.1649 6.25 11.7381M11.9354 13.6214C11.3231 12.936 10.302 12.7517 9.53483 13.3793C8.76772 14.0068 8.65966 15.0561 9.26218 15.7983C9.60229 16.2174 10.4104 16.9519 11.0497 17.5122C11.3529 17.778 11.5045 17.9109 11.6879 17.9652C11.8442 18.0116 12.0266 18.0116 12.1829 17.9652C12.3663 17.9109 12.5179 17.778 12.8211 17.5122C13.4603 16.9519 14.2685 16.2174 14.6086 15.7983C15.2111 15.0561 15.1163 14.0002 14.336 13.3793C13.5555 12.7583 12.5477 12.936 11.9354 13.6214ZM10.625 5.51845C10.625 7.46164 9.05796 9.0369 7.125 9.0369C5.192 9.0369 3.625 7.46164 3.625 5.51845C3.625 3.57526 5.192 2 7.125 2C9.05796 2 10.625 3.57526 10.625 5.51845Z" stroke="#206175" stroke-width="1.5" stroke-linecap="round" stroke-linejoin="round"/>
</svg>
