<svg width="15" height="17" viewBox="0 0 15 17" fill="none" xmlns="http://www.w3.org/2000/svg">
<g clip-path="url(#clip0_29_3423)">
<path d="M7.23809 8.5C8.33504 8.5 9.38707 8.07857 10.1627 7.32843C10.9384 6.57828 11.3741 5.56087 11.3741 4.5C11.3741 3.43913 10.9384 2.42172 10.1627 1.67157C9.38707 0.921427 8.33504 0.5 7.23809 0.5C6.14114 0.5 5.08912 0.921427 4.31346 1.67157C3.5378 2.42172 3.10204 3.43913 3.10204 4.5C3.10204 5.56087 3.5378 6.57828 4.31346 7.32843C5.08912 8.07857 6.14114 8.5 7.23809 8.5ZM4.13605 10.225C1.7449 10.9031 0 13.0406 0 15.5719C0 16.0844 0.429762 16.5 0.959694 16.5H13.5165C14.0464 16.5 14.4762 16.0844 14.4762 15.5719C14.4762 13.0406 12.7313 10.9031 10.3401 10.225V11.8125C11.232 12.0344 11.8912 12.8188 11.8912 13.75V15C11.8912 15.275 11.6585 15.5 11.3741 15.5H10.8571C10.5728 15.5 10.3401 15.275 10.3401 15C10.3401 14.725 10.5728 14.5 10.8571 14.5V13.75C10.8571 13.1969 10.3951 12.75 9.82313 12.75C9.25119 12.75 8.78911 13.1969 8.78911 13.75V14.5C9.07347 14.5 9.30612 14.725 9.30612 15C9.30612 15.275 9.07347 15.5 8.78911 15.5H8.27211C7.98775 15.5 7.7551 15.275 7.7551 15V13.75C7.7551 12.8188 8.41428 12.0344 9.30612 11.8125V10.0281C9.11224 10.0094 8.91514 10 8.7148 10H5.76139C5.56105 10 5.36395 10.0094 5.17007 10.0281V12.0719C5.9165 12.2875 6.46258 12.9563 6.46258 13.75C6.46258 14.7156 5.65153 15.5 4.65306 15.5C3.65459 15.5 2.84354 14.7156 2.84354 13.75C2.84354 12.9563 3.38963 12.2875 4.13605 12.0719V10.225ZM4.65306 14.5C4.85874 14.5 5.05599 14.421 5.20143 14.2803C5.34687 14.1397 5.42857 13.9489 5.42857 13.75C5.42857 13.5511 5.34687 13.3603 5.20143 13.2197C5.05599 13.079 4.85874 13 4.65306 13C4.44738 13 4.25013 13.079 4.10469 13.2197C3.95926 13.3603 3.87755 13.5511 3.87755 13.75C3.87755 13.9489 3.95926 14.1397 4.10469 14.2803C4.25013 14.421 4.44738 14.5 4.65306 14.5Z" fill="#37384C"/>
</g>
<defs>
<clipPath id="clip0_29_3423">
<rect width="14.4762" height="16" fill="white" transform="translate(0 0.5)"/>
</clipPath>
</defs>
</svg>
