<svg width="24" height="24" viewBox="0 0 24 24" fill="none" xmlns="http://www.w3.org/2000/svg">
<path fill-rule="evenodd" clip-rule="evenodd" d="M3.15084 5.79443C1.92844 5.79443 0.9375 6.78538 0.9375 8.00777V9.83904C0.9375 10.8165 1.57863 11.6782 2.51484 11.959L10.7322 14.4242C11.5619 14.6731 12.4464 14.6731 13.2762 14.4242L21.4935 11.959C22.4297 11.6782 23.0709 10.8165 23.0709 9.83904V8.00777C23.0709 6.78538 22.0799 5.79443 20.8575 5.79443H3.15084ZM12.7578 9.58888C12.7578 9.17467 12.422 8.83888 12.0078 8.83888C11.5936 8.83888 11.2578 9.17467 11.2578 9.58888V11.486C11.2578 11.9002 11.5936 12.236 12.0078 12.236C12.422 12.236 12.7578 11.9002 12.7578 11.486V9.58888Z" fill="#37384C"/>
<path fill-rule="evenodd" clip-rule="evenodd" d="M1.02344 13.0789V17.4931C1.02344 20.3963 3.37693 22.7498 6.28011 22.7498H17.7157C20.6189 22.7498 22.9723 20.3963 22.9723 17.4931V13.0818C22.6668 13.2815 22.3293 13.4402 21.9664 13.549L13.7491 16.0142C12.6082 16.3565 11.392 16.3565 10.2511 16.0142L2.03378 13.549C1.66921 13.4397 1.3302 13.28 1.02344 13.0789ZM1.09421 10.6676L11.9979 12.5134L22.9064 10.6667C22.6601 11.2769 22.1477 11.7616 21.4895 11.959L13.2721 14.4242C12.4424 14.6732 11.5579 14.6732 10.7281 14.4242L2.51078 11.959C1.85278 11.7616 1.34054 11.2773 1.09421 10.6676ZM11.9893 14.1716L11.9968 14.1731L11.9958 14.1734L11.9893 14.1716Z" fill="#37384C"/>
<path d="M15.6903 5.79427V4C15.6903 2.89543 14.7949 2 13.6903 2H10.3125C9.20793 2 8.3125 2.89543 8.3125 4L8.3125 5.79427" stroke="#37384C" stroke-width="1.5"/>
</svg>
