<svg width="24" height="23" viewBox="0 0 24 23" fill="none" xmlns="http://www.w3.org/2000/svg">
<path d="M2 0C0.895833 0 0 0.96582 0 2.15625V11.5H6C6.36667 11.5 6.66667 11.8234 6.66667 12.2188C6.66667 12.6141 6.36667 12.9375 6 12.9375H0V15.8125H6C6.36667 15.8125 6.66667 16.1359 6.66667 16.5312C6.66667 16.9266 6.36667 17.25 6 17.25H0V20.8438C0 22.0342 0.895833 23 2 23H11.0792C10.8167 22.5418 10.6667 22.0027 10.6667 21.4232C10.6667 19.3164 11.7417 17.4791 13.3333 16.5178V2.15625C13.3333 0.96582 12.4375 0 11.3333 0H2ZM6.33333 2.875H7C7.36667 2.875 7.66667 3.19844 7.66667 3.59375V4.67188H8.66667C9.03333 4.67188 9.33333 4.99531 9.33333 5.39062V6.10938C9.33333 6.50469 9.03333 6.82812 8.66667 6.82812H7.66667V7.90625C7.66667 8.30156 7.36667 8.625 7 8.625H6.33333C5.96667 8.625 5.66667 8.30156 5.66667 7.90625V6.82812H4.66667C4.3 6.82812 4 6.50469 4 6.10938V5.39062C4 4.99531 4.3 4.67188 4.66667 4.67188H5.66667V3.59375C5.66667 3.19844 5.96667 2.875 6.33333 2.875ZM21.3333 12.2188C21.3333 11.2656 20.9821 10.3515 20.357 9.67758C19.7319 9.00363 18.8841 8.625 18 8.625C17.1159 8.625 16.2681 9.00363 15.643 9.67758C15.0179 10.3515 14.6667 11.2656 14.6667 12.2188C14.6667 13.1719 15.0179 14.086 15.643 14.7599C16.2681 15.4339 17.1159 15.8125 18 15.8125C18.8841 15.8125 19.7319 15.4339 20.357 14.7599C20.9821 14.086 21.3333 13.1719 21.3333 12.2188ZM12 21.4322C12 22.2992 12.65 23 13.4542 23H22.5458C23.35 23 24 22.2992 24 21.4322C24 19.1232 22.2625 17.25 20.1208 17.25H15.8792C13.7375 17.25 12 19.1232 12 21.4322Z" fill="#625B5A"/>
</svg>
