<svg width="15" height="17" viewBox="0 0 15 17" fill="none" xmlns="http://www.w3.org/2000/svg">
<g clip-path="url(#clip0_29_3947)">
<path d="M7.7619 8.5C8.85885 8.5 9.91087 8.07857 10.6865 7.32843C11.4622 6.57828 11.898 5.56087 11.898 4.5C11.898 3.43913 11.4622 2.42172 10.6865 1.67157C9.91087 0.921427 8.85885 0.5 7.7619 0.5C6.66495 0.5 5.61293 0.921427 4.83727 1.67157C4.06161 2.42172 3.62584 3.43913 3.62584 4.5C3.62584 5.56087 4.06161 6.57828 4.83727 7.32843C5.61293 8.07857 6.66495 8.5 7.7619 8.5ZM4.65986 10.225C2.2687 10.9031 0.523804 13.0406 0.523804 15.5719C0.523804 16.0844 0.953566 16.5 1.4835 16.5H14.0403C14.5702 16.5 15 16.0844 15 15.5719C15 13.0406 13.2551 10.9031 10.8639 10.225V11.8125C11.7558 12.0344 12.415 12.8188 12.415 13.75V15C12.415 15.275 12.1823 15.5 11.898 15.5H11.3809C11.0966 15.5 10.8639 15.275 10.8639 15C10.8639 14.725 11.0966 14.5 11.3809 14.5V13.75C11.3809 13.1969 10.9189 12.75 10.3469 12.75C9.77499 12.75 9.31292 13.1969 9.31292 13.75V14.5C9.59727 14.5 9.82993 14.725 9.82993 15C9.82993 15.275 9.59727 15.5 9.31292 15.5H8.79591C8.51156 15.5 8.2789 15.275 8.2789 15V13.75C8.2789 12.8188 8.93809 12.0344 9.82993 11.8125V10.0281C9.63605 10.0094 9.43894 10 9.2386 10H6.2852C6.08486 10 5.88775 10.0094 5.69387 10.0281V12.0719C6.4403 12.2875 6.98639 12.9563 6.98639 13.75C6.98639 14.7156 6.17533 15.5 5.17686 15.5C4.1784 15.5 3.36734 14.7156 3.36734 13.75C3.36734 12.9563 3.91343 12.2875 4.65986 12.0719V10.225ZM5.17686 14.5C5.38254 14.5 5.5798 14.421 5.72523 14.2803C5.87067 14.1397 5.95237 13.9489 5.95237 13.75C5.95237 13.5511 5.87067 13.3603 5.72523 13.2197C5.5798 13.079 5.38254 13 5.17686 13C4.97119 13 4.77393 13.079 4.6285 13.2197C4.48306 13.3603 4.40135 13.5511 4.40135 13.75C4.40135 13.9489 4.48306 14.1397 4.6285 14.2803C4.77393 14.421 4.97119 14.5 5.17686 14.5Z" fill="#F3F4F6"/>
</g>
<defs>
<clipPath id="clip0_29_3947">
<rect width="14.4762" height="16" fill="white" transform="translate(0.523804 0.5)"/>
</clipPath>
</defs>
</svg>
