<svg width="140" height="211" viewBox="0 0 140 211" fill="none" xmlns="http://www.w3.org/2000/svg">
<path fill-rule="evenodd" clip-rule="evenodd" d="M25.6216 26.22C41.9006 9.94104 63.9796 0.795593 87.0016 0.795593C110.024 0.795593 132.103 9.94104 148.382 26.22C164.661 42.499 173.806 64.5781 173.806 87.6C173.806 110.622 164.661 132.701 148.382 148.98L87.0016 210.36L25.6216 148.98C17.5605 140.92 11.1661 131.351 6.80342 120.819C2.44075 110.287 0.195313 98.9995 0.195312 87.6C0.195313 76.2005 2.44075 64.9127 6.80342 54.3811C11.1661 43.8494 17.5605 34.2803 25.6216 26.22ZM87.0016 112.4C93.5789 112.4 99.8869 109.787 104.538 105.136C109.189 100.485 111.802 94.1774 111.802 87.6C111.802 81.0227 109.189 74.7147 104.538 70.0638C99.8869 65.4129 93.5789 62.8 87.0016 62.8C80.4242 62.8 74.1162 65.4129 69.4653 70.0638C64.8144 74.7147 62.2016 81.0227 62.2016 87.6C62.2016 94.1774 64.8144 100.485 69.4653 105.136C74.1162 109.787 80.4242 112.4 87.0016 112.4Z" fill="#F9F7F6"/>
</svg>
