<svg width="16" height="16" viewBox="0 0 16 16" fill="none" xmlns="http://www.w3.org/2000/svg">
<path d="M12.6625 2H12.0062C12.475 2.17812 12.7187 2.64375 12.7187 3.33437V12.6687C12.7187 13.3594 12.5 13.8344 12.0062 14.0031H12.6625C13.4031 14.0031 14 13.4031 14 12.6687V3.33437C14 2.6 13.4031 2 12.6625 2Z" fill="#625B5A"/>
<path d="M10.7969 2.00625C10.7531 2.00312 10.7094 2 10.6656 2H3.33437C2.6 2 2 2.6 2 3.33437V12.6687C2 13.4031 2.6 14.0031 3.33437 14.0031H10.6687C10.7125 14.0031 10.7563 14 10.8 13.9969C11.4719 13.9312 12.0031 13.3594 12.0031 12.6687V3.33437C12 2.64375 11.4688 2.07187 10.7969 2.00625ZM6.5 8L4.75 7L3 8V3H6.5V8Z" fill="#625B5A"/>
</svg>
