<svg width="125" height="46" viewBox="0 0 125 46" fill="none" xmlns="http://www.w3.org/2000/svg">
<path d="M39.6649 26.8701C37.147 26.8701 35.1108 26.06 33.5563 24.4398C32.0236 22.8196 31.2573 20.7615 31.2573 18.2655C31.2573 15.6381 32.0784 13.5253 33.7205 11.927C35.3845 10.3286 37.3003 9.52948 39.4678 9.52948C41.5697 9.52948 43.3432 10.1425 44.7883 11.3686C46.2333 12.5729 47.1201 14.3025 47.4485 16.5577H34.2459V16.9518C34.2459 19.3821 34.848 21.3198 36.0523 22.7649C37.2565 24.2099 38.8329 24.9324 40.7815 24.9324C43.9344 24.9324 45.9487 23.4108 46.8245 20.3674H47.7112C47.2514 22.5131 46.3318 24.1333 44.9525 25.228C43.595 26.3228 41.8325 26.8701 39.6649 26.8701ZM39.4022 10.4819C38.1323 10.4819 37.0266 10.9198 36.0851 11.7956C35.1655 12.6495 34.5853 13.8646 34.3445 15.4411H44.0657C43.9344 13.7771 43.4417 12.54 42.5878 11.7299C41.7558 10.8979 40.6939 10.4819 39.4022 10.4819Z" fill="#37384C"/>
<path d="M64.7154 26.2905H61.7596V11.0189H55.4868C55.4868 18.2223 55.027 22.7764 54.1074 24.6813C53.4287 26.0169 52.5201 26.6846 51.3815 26.6846C50.8998 26.6846 50.5167 26.5642 50.232 26.3234C49.9693 26.1044 49.8379 25.787 49.8379 25.371C49.8379 25.0644 49.9146 24.7908 50.0678 24.5499C50.243 24.3091 50.4182 24.123 50.5933 23.9916C50.7904 23.8602 51.0859 23.696 51.48 23.499C52.2026 23.1268 52.7171 22.6998 53.0236 22.2181C53.3302 21.7364 53.571 20.6745 53.7462 19.0324C53.9432 17.3903 54.0417 14.8724 54.0417 11.4787V9.80379H64.7154V26.2905Z" fill="#37384C"/>
<path d="M70.2899 26.2905V9.80379H73.2457V23.696L81.6533 9.80379H84.609V26.2905H81.6533V12.3983L73.2457 26.2905H70.2899Z" fill="#37384C"/>
<path d="M93.8195 11.0189H87.7437V9.80379H102.851V11.0189H96.7753V26.2905H93.8195V11.0189Z" fill="#37384C"/>
<path d="M109.476 26.6846C107.944 26.6846 106.674 26.2905 105.667 25.5023C104.659 24.6922 104.156 23.6413 104.156 22.3495C104.156 19.1747 107.757 17.2371 114.961 16.5364V15.3541C114.961 13.6025 114.665 12.3217 114.074 11.5116C113.505 10.6796 112.607 10.2636 111.381 10.2636C110.002 10.2636 109.038 10.6248 108.491 11.3474C108.294 11.5882 108.173 11.8619 108.13 12.1684C108.086 12.4749 108.086 12.8362 108.13 13.2522C108.173 13.6682 108.195 13.8981 108.195 13.9419C108.195 14.3798 108.064 14.7301 107.801 14.9928C107.539 15.2556 107.199 15.387 106.783 15.387C106.323 15.387 105.951 15.2446 105.667 14.96C105.404 14.6754 105.272 14.2922 105.272 13.8105C105.272 12.6282 105.875 11.5882 107.079 10.6905C108.283 9.79284 109.783 9.344 111.578 9.344C113.68 9.344 115.256 9.81473 116.307 10.7562C117.358 11.6977 117.873 13.296 117.851 15.5512L117.818 23.1049C117.818 23.8931 117.906 24.4514 118.081 24.7798C118.278 25.0863 118.595 25.2396 119.033 25.2396C119.756 25.2396 120.369 24.8017 120.872 23.9259L121.398 24.2215C120.697 25.8417 119.515 26.6518 117.851 26.6518C116.997 26.6518 116.307 26.3781 115.782 25.8308C115.278 25.2834 115.027 24.4514 115.027 23.3347V22.4152C114.37 25.2615 112.52 26.6846 109.476 26.6846ZM110.856 25.2724C111.95 25.2724 112.903 24.8783 113.713 24.0901C114.545 23.3019 114.961 22.0758 114.961 20.4118V17.3246C113.8 17.4779 112.793 17.664 111.939 17.883C111.107 18.08 110.319 18.3537 109.575 18.704C108.852 19.0543 108.305 19.4922 107.933 20.0177C107.56 20.5432 107.374 21.1562 107.374 21.8569C107.374 22.7983 107.692 23.6084 108.327 24.2872C108.962 24.944 109.805 25.2724 110.856 25.2724Z" fill="#37384C"/>
<path d="M12.7646 26.9474V23.7288C8.80168 23.5099 5.71452 22.5575 3.50315 20.8716C1.31367 19.1857 0.218933 16.9633 0.218933 14.2046C0.218933 11.0737 1.31367 8.6105 3.50315 6.81512C5.22853 5.38306 7.51137 4.44047 10.3517 3.98736V5.49274C8.61791 5.83015 7.19991 6.43516 6.09768 7.30776C4.54315 8.53386 3.76588 10.5263 3.76588 13.285C3.76588 16.1313 4.51031 18.2661 5.99915 19.6892C7.50989 21.1124 9.76505 21.9444 12.7646 22.1852V5.49791L12.7657 5.49681L12.7646 0.673645H16.2787V3.72796C20.2417 3.94691 23.3179 4.89933 25.5074 6.58523C27.7188 8.24923 28.8244 10.4606 28.8244 13.2193C28.8244 16.3503 27.7297 18.8244 25.5402 20.6417C23.814 22.0572 21.5298 22.9895 18.6876 23.4387V21.9287C20.4049 21.5908 21.8133 20.9867 22.9129 20.1162C24.4893 18.8682 25.2775 16.8758 25.2775 14.1389C25.2775 11.2926 24.5221 9.15787 23.0114 7.73471C21.5225 6.31155 19.2783 5.47954 16.2787 5.2387V20.8071L16.2736 20.8064V26.3873L16.2787 26.3817V26.9474H12.7646Z" fill="#37384C"/>
<path fill-rule="evenodd" clip-rule="evenodd" d="M33.3983 24.5914L33.3972 24.5903C31.8214 22.9245 31.0384 20.8102 31.0384 18.2655C31.0384 15.5885 31.877 13.4158 33.5678 11.7701L33.5688 11.7691C35.2707 10.1344 37.2398 9.31055 39.4679 9.31055C41.6152 9.31055 43.4403 9.9381 44.9292 11.2011C46.4236 12.4468 47.3307 14.2298 47.6652 16.5262L47.7016 16.7767H34.4649V16.9518C34.4649 19.3461 35.0576 21.2293 36.2205 22.6247C37.3814 24.0178 38.8952 24.7135 40.7815 24.7135C42.3224 24.7135 43.5644 24.3421 44.5249 23.6165C45.4856 22.8908 46.1859 21.7948 46.6141 20.3069L46.6597 20.1485H47.9821L47.9253 20.4133C47.4576 22.5957 46.5171 24.2656 45.0893 25.399C43.6843 26.5318 41.8697 27.0891 39.6649 27.0891C37.0953 27.0891 34.9993 26.2601 33.3983 24.5914ZM44.9525 25.228C46.2845 24.1709 47.1878 22.6236 47.6623 20.5864C47.6791 20.514 47.6955 20.441 47.7112 20.3674H46.8245C45.9487 23.4108 43.9344 24.9325 40.7815 24.9325C38.8329 24.9325 37.2565 24.2099 36.0523 22.7649C34.8481 21.3198 34.246 19.3821 34.246 16.9518V16.5577H47.4485C47.4378 16.4842 47.4265 16.4112 47.4146 16.3388C47.0616 14.1903 46.1862 12.5336 44.7883 11.3687C43.3432 10.1426 41.5697 9.5295 39.4679 9.5295C37.3003 9.5295 35.3845 10.3287 33.7205 11.927C32.0784 13.5253 31.2573 15.6381 31.2573 18.2655C31.2573 20.7615 32.0236 22.8196 33.5563 24.4398C35.1108 26.06 37.147 26.8702 39.6649 26.8702C41.8325 26.8702 43.595 26.3228 44.9525 25.228ZM36.2341 11.956C35.4079 12.7232 34.8595 13.8055 34.6029 15.2221H43.8261C43.6709 13.7117 43.1989 12.6115 42.4372 11.8888L42.433 11.8848C41.6463 11.0981 40.6421 10.7009 39.4022 10.7009C38.1884 10.7009 37.1356 11.1174 36.2341 11.956ZM44.0461 15.2221C44.0534 15.2943 44.0599 15.3673 44.0658 15.4411H34.3445C34.3558 15.3673 34.3678 15.2943 34.3805 15.2221C34.6404 13.7517 35.2086 12.6095 36.0851 11.7956C37.0266 10.9198 38.1323 10.4819 39.4022 10.4819C40.694 10.4819 41.7559 10.8979 42.5879 11.7299C43.4039 12.5041 43.89 13.6682 44.0461 15.2221ZM64.9344 26.5095H61.5407V11.2379H55.7056C55.701 14.7438 55.586 17.6183 55.3598 19.8591C55.1296 22.1389 54.7823 23.7869 54.3046 24.7765L54.3027 24.7805C53.6004 26.1624 52.6291 26.9036 51.3815 26.9036C50.8639 26.9036 50.4258 26.7738 50.0914 26.4912C50.0911 26.491 50.0909 26.4908 50.0906 26.4905L50.2321 26.3234L50.0914 26.4912C50.0912 26.4911 50.0916 26.4913 50.0914 26.4912C49.7683 26.2217 49.619 25.8363 49.619 25.371C49.619 25.026 49.7058 24.711 49.8831 24.4324L49.8904 24.4209C50.0741 24.1683 50.2643 23.9647 50.4619 23.8165L50.4717 23.8092C50.6799 23.6703 50.9849 23.5018 51.3809 23.3038C51.3805 23.304 51.3802 23.3041 51.3798 23.3043L51.4801 23.499L51.3821 23.3031C51.3817 23.3034 51.3813 23.3036 51.3809 23.3038C52.0821 22.9423 52.5604 22.5383 52.8389 22.1006C52.9714 21.8924 53.1017 21.5365 53.2206 21.012C53.3385 20.4925 53.4414 19.8256 53.5285 19.0092L53.5288 19.0064C53.7242 17.3779 53.8228 14.8708 53.8228 11.4788V9.58485H64.9344V26.5095ZM61.7596 11.2379V11.019H61.5407M55.7057 11.019H55.4868H55.7057ZM50.0678 24.5499C50.243 24.3091 50.4182 24.123 50.5933 23.9916L50.0678 24.5499ZM70.0709 26.5095V9.58485H73.4646V22.9114L81.5298 9.58485H84.828V26.5095H81.4343V13.183L73.3691 26.5095H70.0709ZM81.6533 12.3983V26.2906H84.609V9.8038H81.6533L73.2457 23.696V9.8038H70.2899V26.2906H73.2457L81.6533 12.3983ZM87.5247 11.2379V9.58485H103.07V11.2379H96.9942V26.5095H93.6005V11.2379H87.5247ZM93.8195 11.019V26.2906H96.7753V11.019H102.851V9.8038H87.7437V11.019H93.8195ZM105.532 25.6748L105.529 25.673C104.47 24.8213 103.937 23.7076 103.937 22.3495C103.937 20.6576 104.905 19.3165 106.753 18.3224C108.559 17.3511 111.228 16.6942 114.742 16.3382V15.3541C114.742 13.6181 114.447 12.3944 113.897 11.6407L113.893 11.6353C113.374 10.8762 112.553 10.4825 111.381 10.4825C110.033 10.4825 109.153 10.8355 108.665 11.4796L108.661 11.4861C108.489 11.6962 108.385 11.9326 108.346 12.1994C108.306 12.4831 108.305 12.8254 108.347 13.2293C108.369 13.4376 108.386 13.5999 108.397 13.7159C108.407 13.8251 108.414 13.9069 108.414 13.9419C108.414 14.4267 108.267 14.8366 107.956 15.1477C107.647 15.4565 107.25 15.6059 106.783 15.6059C106.274 15.6059 105.843 15.4465 105.512 15.1148L105.506 15.1086C105.197 14.7743 105.053 14.3333 105.053 13.8105C105.053 12.5408 105.705 11.4417 106.948 10.515C108.197 9.58395 109.745 9.12506 111.578 9.12506C113.708 9.12506 115.347 9.60159 116.453 10.5931C117.573 11.5962 118.092 13.272 118.07 15.5528C118.07 15.5527 118.07 15.553 118.07 15.5528L118.037 23.1049C118.037 23.1046 118.037 23.1052 118.037 23.1049C118.037 23.8809 118.125 24.39 118.27 24.6689C118.418 24.8947 118.657 25.0207 119.033 25.0207C119.648 25.0207 120.201 24.6549 120.683 23.8168L120.791 23.6288L121.677 24.1274L121.599 24.3084C121.236 25.1476 120.742 25.7916 120.109 26.2249C119.476 26.6587 118.72 26.8708 117.851 26.8708C116.946 26.8708 116.196 26.5784 115.624 25.9824L115.621 25.979C115.136 25.452 114.878 24.7028 114.82 23.7598C114.454 24.6015 113.942 25.2811 113.28 25.7908C112.306 26.5397 111.031 26.9036 109.476 26.9036C107.905 26.9036 106.584 26.4988 105.532 25.6748ZM114.808 23.1862C114.008 25.5185 112.231 26.6847 109.476 26.6847C107.944 26.6847 106.674 26.2906 105.667 25.5023C104.659 24.6922 104.156 23.6413 104.156 22.3495C104.156 19.1748 107.757 17.2371 114.961 16.5364V15.3541C114.961 13.6025 114.665 12.3217 114.074 11.5116C113.505 10.6796 112.607 10.2636 111.381 10.2636C110.002 10.2636 109.038 10.6249 108.491 11.3474C108.294 11.5882 108.173 11.8619 108.13 12.1684C108.086 12.475 108.086 12.8362 108.13 13.2522C108.173 13.6682 108.195 13.8981 108.195 13.9419C108.195 14.3798 108.064 14.7301 107.801 14.9929C107.539 15.2556 107.199 15.387 106.783 15.387C106.323 15.387 105.951 15.2446 105.667 14.96C105.404 14.6754 105.272 14.2922 105.272 13.8105C105.272 12.6282 105.875 11.5882 107.079 10.6905C108.283 9.79285 109.783 9.34401 111.578 9.34401C113.68 9.34401 115.256 9.81475 116.307 10.7562C117.358 11.6977 117.873 13.296 117.851 15.5512L117.818 23.1049C117.818 23.8931 117.906 24.4514 118.081 24.7798C118.278 25.0863 118.595 25.2396 119.033 25.2396C119.756 25.2396 120.369 24.8018 120.872 23.9262C120.872 23.9263 120.872 23.9261 120.872 23.9262L121.398 24.2215C120.697 25.8417 119.515 26.6518 117.851 26.6518C116.997 26.6518 116.307 26.3781 115.782 25.8308C115.278 25.2834 115.027 24.4514 115.027 23.3348V22.4152C114.964 22.685 114.891 22.942 114.808 23.1862ZM113.56 23.9332L113.562 23.9312C114.334 23.2 114.742 22.0431 114.742 20.4118V17.5752C113.692 17.721 112.776 17.8945 111.994 18.0951L111.99 18.0961C111.172 18.2896 110.399 18.5583 109.669 18.9017C108.972 19.2397 108.457 19.6558 108.111 20.1443C107.768 20.6295 107.593 21.1974 107.593 21.8569C107.593 22.743 107.89 23.499 108.485 24.1363C109.073 24.7431 109.855 25.0535 110.856 25.0535C111.891 25.0535 112.789 24.6831 113.56 23.9332ZM108.327 24.2872C107.692 23.6084 107.374 22.7983 107.374 21.8569C107.374 21.1562 107.56 20.5432 107.933 20.0177C108.305 19.4922 108.852 19.0543 109.575 18.704C110.319 18.3537 111.107 18.08 111.939 17.883C112.739 17.6779 113.673 17.5017 114.742 17.3542C114.814 17.3442 114.887 17.3344 114.961 17.3247V20.4118C114.961 22.0758 114.545 23.3019 113.713 24.0901C112.903 24.8783 111.95 25.2725 110.856 25.2725C109.805 25.2725 108.962 24.944 108.327 24.2872ZM18.6876 21.9287C20.4049 21.5909 21.8133 20.9867 22.9129 20.1162C24.4893 18.8682 25.2775 16.8758 25.2775 14.1389C25.2775 11.2926 24.5221 9.15788 23.0114 7.73472C21.559 6.3464 19.3878 5.52065 16.4977 5.25747C16.4252 5.25086 16.3522 5.24461 16.2788 5.23872V20.8064H16.2736V26.3873L16.2788 26.3818V26.9474H12.7646V23.7288C8.80169 23.5099 5.71453 22.5575 3.50316 20.8716C1.31369 19.1857 0.218948 16.9634 0.218948 14.2046C0.218948 11.0737 1.31369 8.61051 3.50316 6.81514C5.18398 5.42006 7.39384 4.4895 10.1327 4.02346C10.2054 4.0111 10.2783 3.99907 10.3517 3.98737V5.49276C8.61792 5.83017 7.19992 6.43517 6.09769 7.30777C4.54316 8.53388 3.7659 10.5263 3.7659 13.285C3.7659 16.1314 4.51032 18.2661 5.99916 19.6893C7.47292 21.0776 9.6551 21.9033 12.5457 22.1665C12.6182 22.1731 12.6912 22.1794 12.7646 22.1853V5.49793L12.7657 5.49683L12.7646 0.67366H16.2788V3.72798C20.2417 3.94693 23.3179 4.89935 25.5074 6.58525C27.7188 8.24925 28.8245 10.4606 28.8245 13.2194C28.8245 16.3503 27.7297 18.8244 25.5402 20.6417C23.8586 22.0207 21.6473 22.9411 18.9065 23.403C18.8339 23.4152 18.7609 23.4271 18.6876 23.4387V21.9287ZM25.6401 6.41108C27.9055 8.1162 29.0434 10.392 29.0434 13.2194C29.0434 16.408 27.9251 18.9468 25.6801 20.8102L25.6791 20.811C23.9153 22.2573 21.5915 23.2014 18.7218 23.655L18.4686 23.695V21.7487L18.6453 21.7139C20.3367 21.3811 21.7107 20.7887 22.777 19.9445C24.2836 18.7518 25.0586 16.8346 25.0586 14.1389C25.0586 11.3298 24.3137 9.26232 22.8613 7.89409L22.8601 7.893C21.4596 6.55423 19.3494 5.73988 16.4977 5.47733V21.0579L16.4925 21.0572V25.8303L16.4977 25.8248V27.1663H12.5457V23.9353C8.65523 23.6935 5.58943 22.7374 3.37042 21.0457L3.36958 21.0451C1.12638 19.3178 0 17.0314 0 14.2046C0 11.0162 1.11819 8.4879 3.36384 6.64623C5.12677 5.1832 7.44917 4.22869 10.3172 3.77116L10.5706 3.73073V5.67321L10.3935 5.70768C8.6855 6.04007 7.30223 6.63343 6.23359 7.47944C4.75028 8.64937 3.98485 10.5655 3.98485 13.285C3.98485 16.0947 4.71907 18.1624 6.14988 19.5304C7.57219 20.87 9.69392 21.6842 12.5457 21.9467V5.41185L12.5467 5.41077L12.5457 0.454712H16.4977V3.52151C20.3871 3.76324 23.4423 4.71913 25.6401 6.41108Z" fill="#37384C"/>
<path fill-rule="evenodd" clip-rule="evenodd" d="M121.051 1.67365C120.446 1.67365 119.956 2.16378 119.956 2.76838V3.41758H119.314C118.709 3.41758 118.219 3.90771 118.219 4.51232L118.219 4.6374C118.219 5.24201 118.709 5.73214 119.314 5.73214H119.956V6.38154C119.956 6.98615 120.446 7.47628 121.051 7.47628H121.189C121.794 7.47628 122.284 6.98615 122.284 6.38154V5.73214H122.927C123.531 5.73214 124.022 5.24201 124.022 4.6374V4.51232C124.022 3.90771 123.531 3.41758 122.927 3.41758H122.284V2.76838C122.284 2.16378 121.794 1.67365 121.189 1.67365H121.051Z" fill="#FF4D4D"/>
<path d="M1.68533 41.6132C1.55598 41.6132 1.45574 41.5776 1.3846 41.5065C1.31992 41.4289 1.28758 41.3254 1.28758 41.196V35.0552C1.28758 34.9194 1.31992 34.8159 1.3846 34.7448C1.45574 34.6736 1.55598 34.6381 1.68533 34.6381C1.81468 34.6381 1.91169 34.6736 1.97637 34.7448C2.04751 34.8159 2.08308 34.9194 2.08308 35.0552V37.7327H6.18667V35.0552C6.18667 34.9194 6.219 34.8159 6.28368 34.7448C6.35482 34.6736 6.45507 34.6381 6.58441 34.6381C6.71376 34.6381 6.81077 34.6736 6.87545 34.7448C6.94659 34.8159 6.98216 34.9194 6.98216 35.0552V41.196C6.98216 41.3254 6.94659 41.4289 6.87545 41.5065C6.81077 41.5776 6.71376 41.6132 6.58441 41.6132C6.45507 41.6132 6.35482 41.5776 6.28368 41.5065C6.219 41.4289 6.18667 41.3254 6.18667 41.196V38.4215H2.08308V41.196C2.08308 41.3254 2.05074 41.4289 1.98607 41.5065C1.92139 41.5776 1.82115 41.6132 1.68533 41.6132ZM10.0937 41.6326C9.77036 41.6326 9.47932 41.5712 9.22063 41.4483C8.9684 41.3189 8.76791 41.1443 8.61916 40.9244C8.4704 40.7045 8.39603 40.4588 8.39603 40.1871C8.39603 39.8379 8.48334 39.563 8.65796 39.3625C8.83905 39.162 9.13332 39.0198 9.54076 38.9357C9.95468 38.8516 10.5173 38.8096 11.2288 38.8096H11.6653V39.3237H11.2385C10.7146 39.3237 10.3007 39.3496 9.99672 39.4013C9.69922 39.4466 9.48903 39.5274 9.36614 39.6439C9.24973 39.7603 9.19152 39.9252 9.19152 40.1386C9.19152 40.4038 9.28207 40.6204 9.46316 40.7886C9.65071 40.9568 9.90294 41.0408 10.2198 41.0408C10.4785 41.0408 10.7049 40.9794 10.8989 40.8565C11.0994 40.7336 11.2546 40.5655 11.3646 40.352C11.481 40.1386 11.5392 39.8929 11.5392 39.6148V38.5088C11.5392 38.1078 11.4584 37.82 11.2967 37.6454C11.135 37.4643 10.8698 37.3738 10.5012 37.3738C10.2748 37.3738 10.0485 37.4029 9.8221 37.4611C9.59574 37.5193 9.35644 37.6131 9.10421 37.7424C9.01367 37.7877 8.93606 37.8039 8.87139 37.7909C8.80671 37.7715 8.75497 37.736 8.71617 37.6842C8.67736 37.6325 8.65473 37.5743 8.64826 37.5096C8.64179 37.4385 8.65473 37.3706 8.68706 37.3059C8.72587 37.2412 8.78408 37.1895 8.86168 37.1507C9.14625 37.0084 9.42758 36.9049 9.70568 36.8402C9.98378 36.7756 10.2489 36.7432 10.5012 36.7432C10.9086 36.7432 11.2449 36.8111 11.5101 36.9469C11.7753 37.0763 11.9725 37.2768 12.1019 37.5484C12.2312 37.8136 12.2959 38.1564 12.2959 38.5767V41.2057C12.2959 41.3351 12.2636 41.4353 12.1989 41.5065C12.1407 41.5776 12.0534 41.6132 11.9369 41.6132C11.8141 41.6132 11.7203 41.5776 11.6556 41.5065C11.5909 41.4353 11.5586 41.3351 11.5586 41.2057V40.4491H11.6459C11.5942 40.6948 11.4939 40.905 11.3452 41.0796C11.2029 41.2543 11.025 41.3901 10.8116 41.4871C10.5982 41.5841 10.3589 41.6326 10.0937 41.6326ZM14.227 43.3594C14.0977 43.3594 14.0007 43.3238 13.936 43.2527C13.8713 43.188 13.839 43.091 13.839 42.9617V37.1604C13.839 37.031 13.8713 36.934 13.936 36.8693C14.0007 36.7982 14.0944 36.7626 14.2173 36.7626C14.3467 36.7626 14.4437 36.7982 14.5084 36.8693C14.5795 36.934 14.6151 37.031 14.6151 37.1604V38.082L14.5084 37.9462C14.6118 37.5775 14.8156 37.2865 15.1195 37.0731C15.43 36.8532 15.7986 36.7432 16.2255 36.7432C16.6458 36.7432 17.0113 36.8435 17.3217 37.044C17.6386 37.238 17.8811 37.5193 18.0493 37.888C18.2239 38.2501 18.3112 38.6834 18.3112 39.1879C18.3112 39.6859 18.2239 40.1192 18.0493 40.4879C17.8811 40.85 17.6418 41.1314 17.3314 41.3319C17.021 41.5324 16.6523 41.6326 16.2255 41.6326C15.7986 41.6326 15.4332 41.5259 15.1292 41.3125C14.8253 41.0926 14.6183 40.8015 14.5084 40.4394H14.6248V42.9617C14.6248 43.091 14.5892 43.188 14.5181 43.2527C14.4469 43.3238 14.3499 43.3594 14.227 43.3594ZM16.0605 41.002C16.358 41.002 16.6135 40.9309 16.8269 40.7886C17.0468 40.6463 17.215 40.4394 17.3314 40.1677C17.4543 39.8961 17.5157 39.5695 17.5157 39.1879C17.5157 38.5994 17.3831 38.1499 17.118 37.8394C16.8593 37.529 16.5068 37.3738 16.0605 37.3738C15.7695 37.3738 15.514 37.4449 15.2942 37.5872C15.0743 37.723 14.9029 37.9268 14.78 38.1984C14.6636 38.4636 14.6054 38.7934 14.6054 39.1879C14.6054 39.77 14.738 40.2195 15.0031 40.5364C15.2683 40.8468 15.6208 41.002 16.0605 41.002ZM19.9776 41.6132C19.8483 41.6132 19.748 41.5776 19.6769 41.5065C19.6122 41.4353 19.5799 41.3351 19.5799 41.2057V37.1895C19.5799 37.0537 19.6122 36.9534 19.6769 36.8887C19.748 36.8176 19.8483 36.782 19.9776 36.782C20.1005 36.782 20.1943 36.8176 20.2589 36.8887C20.3301 36.9534 20.3657 37.0537 20.3657 37.1895V38.7999H21.2485L22.6842 36.9566C22.7489 36.879 22.8201 36.8305 22.8977 36.8111C22.9753 36.7853 23.0464 36.7853 23.1111 36.8111C23.1822 36.8305 23.2372 36.8693 23.276 36.9275C23.3213 36.9793 23.3439 37.044 23.3439 37.1216C23.3439 37.1992 23.3148 37.28 23.2566 37.3641L21.8887 39.12L21.6656 38.8678C21.8467 38.8872 22.0052 38.9324 22.141 39.0036C22.2768 39.0747 22.4061 39.1814 22.529 39.3237C22.6519 39.466 22.7845 39.6633 22.9268 39.9155L23.6252 41.0699C23.6705 41.1605 23.6867 41.2413 23.6738 41.3125C23.6673 41.3836 23.6349 41.4483 23.5767 41.5065C23.5185 41.5582 23.4506 41.5906 23.373 41.6035C23.3019 41.6164 23.2307 41.6067 23.1596 41.5744C23.0884 41.5421 23.0238 41.4838 22.9656 41.3998L22.1992 40.1192C22.0892 39.9381 21.9858 39.7991 21.8887 39.7021C21.7917 39.5986 21.6818 39.5274 21.5589 39.4886C21.436 39.4498 21.284 39.4304 21.1029 39.4304H20.3657V41.2057C20.3657 41.3351 20.3301 41.4353 20.2589 41.5065C20.1943 41.5776 20.1005 41.6132 19.9776 41.6132ZM26.6556 41.6326C26.1964 41.6326 25.7986 41.5324 25.4623 41.3319C25.126 41.1314 24.8641 40.85 24.6765 40.4879C24.4954 40.1192 24.4049 39.6859 24.4049 39.1879C24.4049 38.8128 24.4566 38.4765 24.5601 38.179C24.6636 37.875 24.8156 37.6163 25.0161 37.4029C25.2166 37.1895 25.4526 37.0278 25.7243 36.9178C26.0024 36.8014 26.3128 36.7432 26.6556 36.7432C27.1148 36.7432 27.5125 36.8435 27.8488 37.044C28.1851 37.2444 28.4438 37.529 28.6249 37.8977C28.8125 38.2598 28.9062 38.6899 28.9062 39.1879C28.9062 39.563 28.8545 39.8993 28.751 40.1968C28.6475 40.4943 28.4956 40.753 28.2951 40.9729C28.0946 41.1863 27.8553 41.3513 27.5772 41.4677C27.3055 41.5776 26.9983 41.6326 26.6556 41.6326ZM26.6556 41.002C26.9466 41.002 27.2021 40.9309 27.422 40.7886C27.6419 40.6463 27.81 40.4394 27.9264 40.1677C28.0493 39.8961 28.1107 39.5695 28.1107 39.1879C28.1107 38.5994 27.9782 38.1499 27.713 37.8394C27.4543 37.529 27.1018 37.3738 26.6556 37.3738C26.3581 37.3738 26.0994 37.4449 25.8795 37.5872C25.6661 37.723 25.4979 37.9268 25.375 38.1984C25.2586 38.4636 25.2004 38.7934 25.2004 39.1879C25.2004 39.77 25.333 40.2195 25.5981 40.5364C25.8633 40.8468 26.2158 41.002 26.6556 41.002ZM33.7048 41.6132C33.5819 41.6132 33.4849 41.5776 33.4138 41.5065C33.3491 41.4353 33.3168 41.3351 33.3168 41.2057V37.4611H31.4153V38.0626C31.4153 38.567 31.3895 39.0133 31.3377 39.4013C31.2925 39.7829 31.2181 40.1128 31.1146 40.3909C31.0111 40.669 30.8721 40.9018 30.6975 41.0893C30.5293 41.2769 30.3191 41.4353 30.0669 41.5647C29.9828 41.6035 29.902 41.6132 29.8244 41.5938C29.7467 41.5809 29.6821 41.5518 29.6303 41.5065C29.5851 41.4547 29.5527 41.3933 29.5333 41.3222C29.5204 41.251 29.5301 41.1799 29.5624 41.1087C29.5948 41.0376 29.653 40.9794 29.737 40.9341C29.9246 40.8306 30.0766 40.7013 30.193 40.5461C30.3159 40.3909 30.4129 40.1968 30.484 39.964C30.5552 39.7312 30.6037 39.4595 30.6296 39.1491C30.6619 38.8322 30.6781 38.4603 30.6781 38.0335V37.2768C30.6781 37.128 30.7169 37.0181 30.7945 36.9469C30.8721 36.8693 30.982 36.8305 31.1243 36.8305H33.6563C33.7986 36.8305 33.9085 36.8693 33.9862 36.9469C34.0638 37.0181 34.1026 37.128 34.1026 37.2768V41.2057C34.1026 41.3351 34.067 41.4353 33.9959 41.5065C33.9312 41.5776 33.8342 41.6132 33.7048 41.6132ZM37.6262 41.6326C37.167 41.6326 36.7693 41.5324 36.433 41.3319C36.0967 41.1314 35.8347 40.85 35.6472 40.4879C35.4661 40.1192 35.3755 39.6859 35.3755 39.1879C35.3755 38.8128 35.4273 38.4765 35.5308 38.179C35.6342 37.875 35.7862 37.6163 35.9867 37.4029C36.1872 37.1895 36.4233 37.0278 36.6949 36.9178C36.973 36.8014 37.2834 36.7432 37.6262 36.7432C38.0854 36.7432 38.4831 36.8435 38.8195 37.044C39.1558 37.2444 39.4145 37.529 39.5955 37.8977C39.7831 38.2598 39.8769 38.6899 39.8769 39.1879C39.8769 39.563 39.8251 39.8993 39.7217 40.1968C39.6182 40.4943 39.4662 40.753 39.2657 40.9729C39.0652 41.1863 38.8259 41.3513 38.5478 41.4677C38.2762 41.5776 37.969 41.6326 37.6262 41.6326ZM37.6262 41.002C37.9172 41.002 38.1727 40.9309 38.3926 40.7886C38.6125 40.6463 38.7806 40.4394 38.8971 40.1677C39.0199 39.8961 39.0814 39.5695 39.0814 39.1879C39.0814 38.5994 38.9488 38.1499 38.6836 37.8394C38.4249 37.529 38.0725 37.3738 37.6262 37.3738C37.3287 37.3738 37.07 37.4449 36.8501 37.5872C36.6367 37.723 36.4685 37.9268 36.3457 38.1984C36.2292 38.4636 36.171 38.7934 36.171 39.1879C36.171 39.77 36.3036 40.2195 36.5688 40.5364C36.8339 40.8468 37.1864 41.002 37.6262 41.002ZM41.5494 41.6132C41.4201 41.6132 41.3198 41.5776 41.2487 41.5065C41.184 41.4289 41.1517 41.3222 41.1517 41.1863V37.2768C41.1517 37.128 41.1905 37.0181 41.2681 36.9469C41.3457 36.8693 41.4556 36.8305 41.5979 36.8305H44.1687C44.2916 36.8305 44.3822 36.8564 44.4404 36.9081C44.4986 36.9599 44.5277 37.0375 44.5277 37.141C44.5277 37.2444 44.4986 37.3253 44.4404 37.3835C44.3822 37.4352 44.2916 37.4611 44.1687 37.4611H41.9375V41.1863C41.9375 41.4709 41.8081 41.6132 41.5494 41.6132ZM45.7264 41.6132C45.6553 41.6132 45.5906 41.597 45.5324 41.5647C45.4807 41.5388 45.4386 41.4935 45.4063 41.4289C45.3804 41.3642 45.3675 41.2834 45.3675 41.1863V37.1507C45.3675 37.0213 45.3998 36.9243 45.4645 36.8596C45.5292 36.795 45.6165 36.7626 45.7264 36.7626C45.8429 36.7626 45.9302 36.795 45.9884 36.8596C46.053 36.9243 46.0854 37.0213 46.0854 37.1507V40.7983H45.8429L48.6659 37.0148C48.7176 36.9437 48.7791 36.8855 48.8502 36.8402C48.9214 36.7885 49.0119 36.7626 49.1218 36.7626C49.1995 36.7626 49.2641 36.7756 49.3159 36.8014C49.3676 36.8273 49.4064 36.8726 49.4323 36.9372C49.4646 36.9954 49.4808 37.0763 49.4808 37.1798V41.2252C49.4808 41.348 49.4485 41.445 49.3838 41.5162C49.3256 41.5809 49.2383 41.6132 49.1218 41.6132C49.0054 41.6132 48.9149 41.5809 48.8502 41.5162C48.792 41.445 48.7629 41.348 48.7629 41.2252V37.5678H49.0054L46.1727 41.361C46.1274 41.4256 46.0692 41.4838 45.9981 41.5356C45.9334 41.5873 45.8429 41.6132 45.7264 41.6132ZM54.4476 41.6132C54.3247 41.6132 54.2277 41.5776 54.1566 41.5065C54.0919 41.4289 54.0596 41.3254 54.0596 41.196V39.6342C53.8785 39.7441 53.6812 39.8282 53.4678 39.8864C53.2609 39.9381 53.041 39.964 52.8081 39.964C52.1355 39.964 51.6375 39.8055 51.3142 39.4886C50.9908 39.1653 50.8291 38.677 50.8291 38.0238V37.1604C50.8291 37.031 50.8614 36.934 50.9261 36.8693C50.9973 36.7982 51.0975 36.7626 51.2268 36.7626C51.3497 36.7626 51.4435 36.7982 51.5082 36.8693C51.5793 36.934 51.6149 37.031 51.6149 37.1604V37.9656C51.6149 38.4312 51.7151 38.7708 51.9156 38.9842C52.1226 39.1976 52.4524 39.3043 52.9051 39.3043C53.138 39.3043 53.3449 39.2785 53.526 39.2267C53.7071 39.175 53.8817 39.0909 54.0499 38.9745V37.1701C54.0499 36.8984 54.1792 36.7626 54.4379 36.7626C54.5673 36.7626 54.6643 36.7982 54.729 36.8693C54.8001 36.9405 54.8357 37.0407 54.8357 37.1701V41.196C54.8357 41.3254 54.8033 41.4289 54.7387 41.5065C54.674 41.5776 54.577 41.6132 54.4476 41.6132ZM58.5198 41.6326C58.0218 41.6326 57.5917 41.5356 57.2295 41.3416C56.8738 41.1411 56.5957 40.8597 56.3952 40.4976C56.2012 40.1354 56.1042 39.7021 56.1042 39.1976C56.1042 38.7061 56.2012 38.2792 56.3952 37.9171C56.5892 37.5484 56.8544 37.2606 57.1907 37.0537C57.5335 36.8467 57.928 36.7432 58.3742 36.7432C58.6912 36.7432 58.9757 36.7982 59.2279 36.9081C59.4802 37.0116 59.6936 37.1636 59.8682 37.3641C60.0493 37.5646 60.1851 37.8071 60.2757 38.0917C60.3727 38.3762 60.4212 38.6964 60.4212 39.0521C60.4212 39.1556 60.3921 39.2332 60.3339 39.2849C60.2757 39.3302 60.1916 39.3528 60.0816 39.3528H56.7056V38.8387H59.8973L59.7421 38.9648C59.7421 38.6155 59.6904 38.3213 59.5869 38.082C59.4834 37.8362 59.3314 37.6487 59.1309 37.5193C58.9369 37.39 58.6911 37.3253 58.3936 37.3253C58.0638 37.3253 57.7825 37.4029 57.5496 37.5581C57.3233 37.7069 57.1519 37.9171 57.0355 38.1887C56.9191 38.4539 56.8609 38.7643 56.8609 39.12V39.1782C56.8609 39.7732 57.0031 40.2259 57.2877 40.5364C57.5788 40.8468 57.9894 41.002 58.5198 41.002C58.7397 41.002 58.9563 40.9729 59.1697 40.9147C59.3896 40.8565 59.6031 40.7595 59.81 40.6237C59.9006 40.5655 59.9814 40.5396 60.0525 40.5461C60.1302 40.5461 60.1916 40.5687 60.2369 40.614C60.2821 40.6528 60.3112 40.7045 60.3242 40.7692C60.3436 40.8274 60.3371 40.8921 60.3048 40.9632C60.2789 41.0344 60.2239 41.0958 60.1399 41.1475C59.9264 41.3028 59.6742 41.4224 59.3832 41.5065C59.0921 41.5906 58.8043 41.6326 58.5198 41.6326ZM63.6516 41.6326C63.1795 41.6326 62.772 41.5291 62.4293 41.3222C62.0865 41.1152 61.8213 40.8274 61.6338 40.4588C61.4527 40.0836 61.3621 39.6503 61.3621 39.1588C61.3621 38.7837 61.4139 38.4474 61.5173 38.1499C61.6208 37.8524 61.7728 37.6002 61.9733 37.3932C62.1738 37.1798 62.4131 37.0181 62.6912 36.9081C62.9758 36.7982 63.2959 36.7432 63.6516 36.7432C63.8844 36.7432 64.127 36.7788 64.3792 36.8499C64.6314 36.9211 64.861 37.044 65.068 37.2186C65.1326 37.2638 65.1747 37.3188 65.1941 37.3835C65.2135 37.4482 65.2135 37.5128 65.1941 37.5775C65.1747 37.6357 65.1423 37.6875 65.0971 37.7327C65.0518 37.7715 64.9936 37.7942 64.9224 37.8006C64.8578 37.8071 64.7899 37.7845 64.7187 37.7327C64.5506 37.6034 64.3792 37.5128 64.2046 37.4611C64.0299 37.4094 63.8618 37.3835 63.7001 37.3835C63.4479 37.3835 63.228 37.4255 63.0404 37.5096C62.8529 37.5872 62.6944 37.7004 62.5651 37.8491C62.4357 37.9979 62.3355 38.1822 62.2643 38.4021C62.1997 38.622 62.1673 38.8775 62.1673 39.1685C62.1673 39.7312 62.2999 40.1774 62.5651 40.5073C62.8302 40.8306 63.2086 40.9923 63.7001 40.9923C63.8618 40.9923 64.0267 40.9665 64.1949 40.9147C64.3695 40.863 64.5441 40.7724 64.7187 40.6431C64.7899 40.5913 64.8578 40.5687 64.9224 40.5752C64.9871 40.5816 65.0421 40.6075 65.0874 40.6528C65.1326 40.6916 65.1617 40.7433 65.1747 40.808C65.1941 40.8727 65.1941 40.9373 65.1747 41.002C65.1553 41.0602 65.1132 41.112 65.0486 41.1572C64.8416 41.3254 64.6152 41.4483 64.3695 41.5259C64.1237 41.597 63.8844 41.6326 63.6516 41.6326ZM66.6265 41.6132C66.4972 41.6132 66.3969 41.5776 66.3258 41.5065C66.2611 41.4353 66.2288 41.3351 66.2288 41.2057V37.1895C66.2288 37.0537 66.2611 36.9534 66.3258 36.8887C66.3969 36.8176 66.4972 36.782 66.6265 36.782C66.7494 36.782 66.8432 36.8176 66.9079 36.8887C66.979 36.9534 67.0146 37.0537 67.0146 37.1895V38.7999H67.8974L69.3331 36.9566C69.3978 36.879 69.469 36.8305 69.5466 36.8111C69.6242 36.7853 69.6953 36.7853 69.76 36.8111C69.8311 36.8305 69.8861 36.8693 69.9249 36.9275C69.9702 36.9793 69.9928 37.044 69.9928 37.1216C69.9928 37.1992 69.9637 37.28 69.9055 37.3641L68.5376 39.12L68.3145 38.8678C68.4956 38.8872 68.6541 38.9324 68.7899 39.0036C68.9257 39.0747 69.055 39.1814 69.1779 39.3237C69.3008 39.466 69.4334 39.6633 69.5757 39.9155L70.2742 41.0699C70.3194 41.1605 70.3356 41.2413 70.3227 41.3125C70.3162 41.3836 70.2839 41.4483 70.2256 41.5065C70.1674 41.5582 70.0995 41.5906 70.0219 41.6035C69.9508 41.6164 69.8796 41.6067 69.8085 41.5744C69.7374 41.5421 69.6727 41.4838 69.6145 41.3998L68.8481 40.1192C68.7381 39.9381 68.6347 39.7991 68.5376 39.7021C68.4406 39.5986 68.3307 39.5274 68.2078 39.4886C68.0849 39.4498 67.9329 39.4304 67.7519 39.4304H67.0146V41.2057C67.0146 41.3351 66.979 41.4353 66.9079 41.5065C66.8432 41.5776 66.7494 41.6132 66.6265 41.6132ZM72.8291 41.6326C72.5057 41.6326 72.2147 41.5712 71.956 41.4483C71.7038 41.3189 71.5033 41.1443 71.3545 40.9244C71.2058 40.7045 71.1314 40.4588 71.1314 40.1871C71.1314 39.8379 71.2187 39.563 71.3934 39.3625C71.5744 39.162 71.8687 39.0198 72.2762 38.9357C72.6901 38.8516 73.2527 38.8096 73.9642 38.8096H74.4007V39.3237H73.9739C73.45 39.3237 73.0361 39.3496 72.7321 39.4013C72.4346 39.4466 72.2244 39.5274 72.1015 39.6439C71.9851 39.7603 71.9269 39.9252 71.9269 40.1386C71.9269 40.4038 72.0175 40.6204 72.1985 40.7886C72.3861 40.9568 72.6383 41.0408 72.9552 41.0408C73.2139 41.0408 73.4403 40.9794 73.6343 40.8565C73.8348 40.7336 73.99 40.5655 74.1 40.352C74.2164 40.1386 74.2746 39.8929 74.2746 39.6148V38.5088C74.2746 38.1078 74.1938 37.82 74.0321 37.6454C73.8704 37.4643 73.6052 37.3738 73.2366 37.3738C73.0102 37.3738 72.7838 37.4029 72.5575 37.4611C72.3311 37.5193 72.0918 37.6131 71.8396 37.7424C71.7491 37.7877 71.6715 37.8039 71.6068 37.7909C71.5421 37.7715 71.4904 37.736 71.4516 37.6842C71.4128 37.6325 71.3901 37.5743 71.3836 37.5096C71.3772 37.4385 71.3901 37.3706 71.4225 37.3059C71.4613 37.2412 71.5195 37.1895 71.5971 37.1507C71.8816 37.0084 72.163 36.9049 72.4411 36.8402C72.7192 36.7756 72.9843 36.7432 73.2366 36.7432C73.644 36.7432 73.9803 36.8111 74.2455 36.9469C74.5107 37.0763 74.7079 37.2768 74.8373 37.5484C74.9666 37.8136 75.0313 38.1564 75.0313 38.5767V41.2057C75.0313 41.3351 74.9989 41.4353 74.9343 41.5065C74.8761 41.5776 74.7888 41.6132 74.6723 41.6132C74.5495 41.6132 74.4557 41.5776 74.391 41.5065C74.3263 41.4353 74.294 41.3351 74.294 41.2057V40.4491H74.3813C74.3296 40.6948 74.2293 40.905 74.0806 41.0796C73.9383 41.2543 73.7604 41.3901 73.547 41.4871C73.3336 41.5841 73.0943 41.6326 72.8291 41.6326ZM79.8728 41.6132C79.7499 41.6132 79.6561 41.5809 79.5914 41.5162C79.5268 41.445 79.4944 41.3513 79.4944 41.2349V39.7506H78.8056C78.5534 39.7506 78.3367 39.8152 78.1557 39.9446C77.9746 40.0739 77.8291 40.2324 77.7191 40.42L77.1661 41.3901C77.1079 41.4871 77.04 41.5518 76.9624 41.5841C76.8848 41.6164 76.8072 41.6229 76.7296 41.6035C76.652 41.5841 76.5841 41.5453 76.5259 41.4871C76.4677 41.4289 76.4321 41.361 76.4191 41.2834C76.4062 41.1993 76.4256 41.112 76.4774 41.0214L76.943 40.2356C77.053 40.0416 77.1985 39.8799 77.3796 39.7506C77.5607 39.6212 77.745 39.5566 77.9325 39.5566H78.0586V39.6439C77.5283 39.6439 77.1176 39.521 76.8266 39.2752C76.5356 39.0295 76.39 38.6867 76.39 38.2469C76.39 37.9559 76.4515 37.7069 76.5744 37.4999C76.7037 37.2865 76.8977 37.1216 77.1564 37.0051C77.4151 36.8887 77.7353 36.8305 78.1169 36.8305H79.8243C79.9601 36.8305 80.0635 36.8661 80.1347 36.9372C80.2058 37.0084 80.2414 37.1086 80.2414 37.238V41.2349C80.2414 41.3513 80.2058 41.445 80.1347 41.5162C80.07 41.5809 79.9827 41.6132 79.8728 41.6132ZM78.2624 39.1782H79.4944V37.3835H78.2624C77.8808 37.3835 77.5995 37.4643 77.4184 37.626C77.2373 37.7812 77.1467 37.9979 77.1467 38.276C77.1467 38.5606 77.2373 38.7837 77.4184 38.9454C77.5995 39.1006 77.8808 39.1782 78.2624 39.1782ZM84.693 41.6132C84.5637 41.6132 84.4634 41.5776 84.3923 41.5065C84.3276 41.4353 84.2953 41.3351 84.2953 41.2057V37.1895C84.2953 37.0537 84.3276 36.9534 84.3923 36.8887C84.4634 36.8176 84.5637 36.782 84.693 36.782C84.8159 36.782 84.9097 36.8176 84.9744 36.8887C85.0455 36.9534 85.0811 37.0537 85.0811 37.1895V38.7999H85.9639L87.3996 36.9566C87.4643 36.879 87.5355 36.8305 87.6131 36.8111C87.6907 36.7853 87.7618 36.7853 87.8265 36.8111C87.8976 36.8305 87.9526 36.8693 87.9914 36.9275C88.0367 36.9793 88.0593 37.044 88.0593 37.1216C88.0593 37.1992 88.0302 37.28 87.972 37.3641L86.6041 39.12L86.381 38.8678C86.5621 38.8872 86.7206 38.9324 86.8564 39.0036C86.9922 39.0747 87.1215 39.1814 87.2444 39.3237C87.3673 39.466 87.4999 39.6633 87.6422 39.9155L88.3407 41.0699C88.3859 41.1605 88.4021 41.2413 88.3892 41.3125C88.3827 41.3836 88.3504 41.4483 88.2921 41.5065C88.2339 41.5582 88.166 41.5906 88.0884 41.6035C88.0173 41.6164 87.9461 41.6067 87.875 41.5744C87.8039 41.5421 87.7392 41.4838 87.681 41.3998L86.9146 40.1192C86.8046 39.9381 86.7012 39.7991 86.6041 39.7021C86.5071 39.5986 86.3972 39.5274 86.2743 39.4886C86.1514 39.4498 85.9994 39.4304 85.8184 39.4304H85.0811V41.2057C85.0811 41.3351 85.0455 41.4353 84.9744 41.5065C84.9097 41.5776 84.8159 41.6132 84.693 41.6132ZM93.0202 41.6132C92.8973 41.6132 92.8003 41.5776 92.7291 41.5065C92.6645 41.4353 92.6321 41.3351 92.6321 41.2057V37.4611H90.7307V38.0626C90.7307 38.567 90.7048 39.0133 90.6531 39.4013C90.6078 39.7829 90.5334 40.1128 90.43 40.3909C90.3265 40.669 90.1874 40.9018 90.0128 41.0893C89.8447 41.2769 89.6345 41.4353 89.3822 41.5647C89.2982 41.6035 89.2173 41.6132 89.1397 41.5938C89.0621 41.5809 88.9974 41.5518 88.9457 41.5065C88.9004 41.4547 88.8681 41.3933 88.8487 41.3222C88.8357 41.251 88.8454 41.1799 88.8778 41.1087C88.9101 41.0376 88.9683 40.9794 89.0524 40.9341C89.24 40.8306 89.3919 40.7013 89.5084 40.5461C89.6312 40.3909 89.7282 40.1968 89.7994 39.964C89.8705 39.7312 89.919 39.4595 89.9449 39.1491C89.9772 38.8322 89.9934 38.4603 89.9934 38.0335V37.2768C89.9934 37.128 90.0322 37.0181 90.1098 36.9469C90.1874 36.8693 90.2974 36.8305 90.4397 36.8305H92.9717C93.1139 36.8305 93.2239 36.8693 93.3015 36.9469C93.3791 37.0181 93.4179 37.128 93.4179 37.2768V41.2057C93.4179 41.3351 93.3823 41.4353 93.3112 41.5065C93.2465 41.5776 93.1495 41.6132 93.0202 41.6132ZM95.3312 41.6132C95.26 41.6132 95.1954 41.597 95.1371 41.5647C95.0854 41.5388 95.0434 41.4935 95.011 41.4289C94.9852 41.3642 94.9722 41.2834 94.9722 41.1863V37.1507C94.9722 37.0213 95.0046 36.9243 95.0692 36.8596C95.1339 36.795 95.2212 36.7626 95.3312 36.7626C95.4476 36.7626 95.5349 36.795 95.5931 36.8596C95.6578 36.9243 95.6901 37.0213 95.6901 37.1507V40.7983H95.4476L98.2706 37.0148C98.3224 36.9437 98.3838 36.8855 98.4549 36.8402C98.5261 36.7885 98.6166 36.7626 98.7266 36.7626C98.8042 36.7626 98.8689 36.7756 98.9206 36.8014C98.9723 36.8273 99.0111 36.8726 99.037 36.9372C99.0693 36.9954 99.0855 37.0763 99.0855 37.1798V41.2252C99.0855 41.348 99.0532 41.445 98.9885 41.5162C98.9303 41.5809 98.843 41.6132 98.7266 41.6132C98.6102 41.6132 98.5196 41.5809 98.4549 41.5162C98.3967 41.445 98.3676 41.348 98.3676 41.2252V37.5678H98.6102L95.7774 41.361C95.7322 41.4256 95.6739 41.4838 95.6028 41.5356C95.5381 41.5873 95.4476 41.6132 95.3312 41.6132ZM101.035 41.6132C100.906 41.6132 100.806 41.5776 100.735 41.5065C100.67 41.4353 100.638 41.3351 100.638 41.2057V37.1604C100.638 37.0246 100.67 36.9243 100.735 36.8596C100.806 36.795 100.906 36.7626 101.035 36.7626C101.158 36.7626 101.252 36.795 101.317 36.8596C101.388 36.9243 101.423 37.0246 101.423 37.1604V38.7902H103.994V37.1604C103.994 37.0246 104.026 36.9243 104.091 36.8596C104.162 36.795 104.259 36.7626 104.382 36.7626C104.505 36.7626 104.602 36.795 104.673 36.8596C104.744 36.9243 104.78 37.0246 104.78 37.1604V41.2057C104.78 41.3351 104.744 41.4353 104.673 41.5065C104.602 41.5776 104.505 41.6132 104.382 41.6132C104.259 41.6132 104.162 41.5776 104.091 41.5065C104.026 41.4353 103.994 41.3351 103.994 41.2057V39.4304H101.423V41.2057C101.423 41.3351 101.391 41.4353 101.326 41.5065C101.262 41.5776 101.165 41.6132 101.035 41.6132ZM106.69 41.6132C106.619 41.6132 106.554 41.597 106.496 41.5647C106.444 41.5388 106.402 41.4935 106.37 41.4289C106.344 41.3642 106.331 41.2834 106.331 41.1863V37.1507C106.331 37.0213 106.364 36.9243 106.428 36.8596C106.493 36.795 106.58 36.7626 106.69 36.7626C106.807 36.7626 106.894 36.795 106.952 36.8596C107.017 36.9243 107.049 37.0213 107.049 37.1507V40.7983H106.807L109.63 37.0148C109.681 36.9437 109.743 36.8855 109.814 36.8402C109.885 36.7885 109.976 36.7626 110.086 36.7626C110.163 36.7626 110.228 36.7756 110.28 36.8014C110.331 36.8273 110.37 36.8726 110.396 36.9372C110.428 36.9954 110.445 37.0763 110.445 37.1798V41.2252C110.445 41.348 110.412 41.445 110.348 41.5162C110.289 41.5809 110.202 41.6132 110.086 41.6132C109.969 41.6132 109.879 41.5809 109.814 41.5162C109.756 41.445 109.727 41.348 109.727 41.2252V37.5678H109.969L107.136 41.361C107.091 41.4256 107.033 41.4838 106.962 41.5356C106.897 41.5873 106.807 41.6132 106.69 41.6132ZM112.394 41.6132C112.265 41.6132 112.165 41.5776 112.094 41.5065C112.029 41.4353 111.997 41.3351 111.997 41.2057V37.1895C111.997 37.0537 112.029 36.9534 112.094 36.8887C112.165 36.8176 112.265 36.782 112.394 36.782C112.517 36.782 112.611 36.8176 112.676 36.8887C112.747 36.9534 112.782 37.0537 112.782 37.1895V38.7999H113.665L115.101 36.9566C115.166 36.879 115.237 36.8305 115.314 36.8111C115.392 36.7853 115.463 36.7853 115.528 36.8111C115.599 36.8305 115.654 36.8693 115.693 36.9275C115.738 36.9793 115.761 37.044 115.761 37.1216C115.761 37.1992 115.732 37.28 115.673 37.3641L114.305 39.12L114.082 38.8678C114.263 38.8872 114.422 38.9324 114.558 39.0036C114.694 39.0747 114.823 39.1814 114.946 39.3237C115.069 39.466 115.201 39.6633 115.344 39.9155L116.042 41.0699C116.087 41.1605 116.103 41.2413 116.09 41.3125C116.084 41.3836 116.052 41.4483 115.993 41.5065C115.935 41.5582 115.867 41.5906 115.79 41.6035C115.719 41.6164 115.647 41.6067 115.576 41.5744C115.505 41.5421 115.441 41.4838 115.382 41.3998L114.616 40.1192C114.506 39.9381 114.402 39.7991 114.305 39.7021C114.208 39.5986 114.099 39.5274 113.976 39.4886C113.853 39.4498 113.701 39.4304 113.52 39.4304H112.782V41.2057C112.782 41.3351 112.747 41.4353 112.676 41.5065C112.611 41.5776 112.517 41.6132 112.394 41.6132ZM118.597 41.6326C118.274 41.6326 117.983 41.5712 117.724 41.4483C117.472 41.3189 117.271 41.1443 117.122 40.9244C116.974 40.7045 116.899 40.4588 116.899 40.1871C116.899 39.8379 116.987 39.563 117.161 39.3625C117.342 39.162 117.637 39.0198 118.044 38.9357C118.458 38.8516 119.021 38.8096 119.732 38.8096H120.169V39.3237H119.742C119.218 39.3237 118.804 39.3496 118.5 39.4013C118.202 39.4466 117.992 39.5274 117.869 39.6439C117.753 39.7603 117.695 39.9252 117.695 40.1386C117.695 40.4038 117.785 40.6204 117.966 40.7886C118.154 40.9568 118.406 41.0408 118.723 41.0408C118.982 41.0408 119.208 40.9794 119.402 40.8565C119.603 40.7336 119.758 40.5655 119.868 40.352C119.984 40.1386 120.042 39.8929 120.042 39.6148V38.5088C120.042 38.1078 119.962 37.82 119.8 37.6454C119.638 37.4643 119.373 37.3738 119.004 37.3738C118.778 37.3738 118.552 37.4029 118.325 37.4611C118.099 37.5193 117.86 37.6131 117.607 37.7424C117.517 37.7877 117.439 37.8039 117.375 37.7909C117.31 37.7715 117.258 37.736 117.219 37.6842C117.181 37.6325 117.158 37.5743 117.151 37.5096C117.145 37.4385 117.158 37.3706 117.19 37.3059C117.229 37.2412 117.287 37.1895 117.365 37.1507C117.649 37.0084 117.931 36.9049 118.209 36.8402C118.487 36.7756 118.752 36.7432 119.004 36.7432C119.412 36.7432 119.748 36.8111 120.013 36.9469C120.278 37.0763 120.476 37.2768 120.605 37.5484C120.734 37.8136 120.799 38.1564 120.799 38.5767V41.2057C120.799 41.3351 120.767 41.4353 120.702 41.5065C120.644 41.5776 120.557 41.6132 120.44 41.6132C120.317 41.6132 120.224 41.5776 120.159 41.5065C120.094 41.4353 120.062 41.3351 120.062 41.2057V40.4491H120.149C120.097 40.6948 119.997 40.905 119.848 41.0796C119.706 41.2543 119.528 41.3901 119.315 41.4871C119.101 41.5841 118.862 41.6326 118.597 41.6326Z" fill="#656675"/>
</svg>
