<svg width="136" height="56" viewBox="0 0 136 56" fill="none" xmlns="http://www.w3.org/2000/svg">
<path d="M14.643 10.85L23.433 32H16.983L11.913 18.89L6.84301 32H0.543008L9.30301 10.85H14.643ZM32.7309 32.39C27.5709 32.39 23.8209 28.61 23.8209 23.96V23.9C23.8209 19.25 27.6009 15.41 32.7909 15.41C37.9809 15.41 41.7309 19.22 41.7309 23.84V23.9C41.7309 28.55 37.9209 32.39 32.7309 32.39ZM32.7909 27.56C34.8609 27.56 36.2109 25.91 36.2109 23.96V23.9C36.2109 21.89 34.7709 20.21 32.7309 20.21C30.6609 20.21 29.3409 21.83 29.3409 23.84V23.9C29.3409 25.88 30.7809 27.56 32.7909 27.56ZM44.1384 32V15.77H57.3384V20.63H49.8384V32H44.1384ZM67.1547 32.39C61.9947 32.39 58.2447 28.61 58.2447 23.96V23.9C58.2447 19.25 62.0247 15.41 67.2147 15.41C72.4047 15.41 76.1547 19.22 76.1547 23.84V23.9C76.1547 28.55 72.3447 32.39 67.1547 32.39ZM67.2147 27.56C69.2847 27.56 70.6347 25.91 70.6347 23.96V23.9C70.6347 21.89 69.1947 20.21 67.1547 20.21C65.0847 20.21 63.7647 21.83 63.7647 23.84V23.9C63.7647 25.88 65.2047 27.56 67.2147 27.56ZM82.2663 32V20.6H77.1663V15.77H93.0363V20.6H87.9363V32H82.2663ZM95.2907 32V15.77H100.901V23.69L106.481 15.77H111.671V32H106.061V23.84L100.361 32H95.2907ZM114.744 32V15.77H131.124V32H125.454V20.63H120.444V32H114.744Z" fill="#003649"/>
<path d="M1.19215 53V46H1.98215V49.11H6.02215V46H6.81215V53H6.02215V49.85H1.98215V53H1.19215ZM10.1998 53.11C9.2398 53.11 8.2698 52.57 8.2698 51.5V51.48C8.2698 50.4 9.1698 49.81 10.4798 49.81C11.1498 49.81 11.5998 49.9 12.0698 50.03V49.85C12.0698 48.92 11.4998 48.44 10.5298 48.44C9.9198 48.44 9.4398 48.59 8.9598 48.82L8.7298 48.19C9.2998 47.92 9.8498 47.76 10.6098 47.76C11.3398 47.76 11.8998 47.95 12.2798 48.33C12.6298 48.68 12.8098 49.19 12.8098 49.84V53H12.0698V52.22C11.7098 52.69 11.1198 53.11 10.1998 53.11ZM10.3498 52.5C11.3098 52.5 12.0798 51.92 12.0798 51.1V50.6C11.6898 50.49 11.1998 50.38 10.5598 50.38C9.5898 50.38 9.0498 50.8 9.0498 51.45V51.47C9.0498 52.12 9.6598 52.5 10.3498 52.5ZM14.4508 54.6V47.83H15.2208V48.87C15.6508 48.26 16.2408 47.72 17.2008 47.72C18.4408 47.72 19.6708 48.7 19.6708 50.4V50.42C19.6708 52.1 18.4508 53.11 17.2008 53.11C16.2408 53.11 15.6208 52.6 15.2208 52.01V54.6H14.4508ZM17.0608 52.42C18.0608 52.42 18.8808 51.68 18.8808 50.43V50.41C18.8808 49.18 18.0508 48.41 17.0608 48.41C16.1008 48.41 15.1908 49.23 15.1908 50.4V50.42C15.1908 51.62 16.1008 52.42 17.0608 52.42ZM21.8614 47.83V50.05H22.8014L24.7314 47.83H25.6914L23.4214 50.36L25.7514 53H24.7914L22.8214 50.73H21.8614V53H21.0914V47.83H21.8614ZM28.9202 53.12C27.3702 53.12 26.2402 51.9 26.2402 50.44V50.42C26.2402 48.95 27.3702 47.72 28.9402 47.72C30.5002 47.72 31.6302 48.94 31.6302 50.4V50.42C31.6302 51.89 30.4802 53.12 28.9202 53.12ZM28.9402 52.43C30.0602 52.43 30.8402 51.52 30.8402 50.44V50.42C30.8402 49.31 30.0102 48.4 28.9202 48.4C27.8002 48.4 27.0302 49.31 27.0302 50.4V50.42C27.0302 51.53 27.8502 52.43 28.9402 52.43ZM35.3014 47.79L37.6514 53H36.7914L34.9414 48.74L33.0814 53H32.2514L34.5914 47.79H35.3014ZM40.9612 53.12C39.4112 53.12 38.2812 51.9 38.2812 50.44V50.42C38.2812 48.95 39.4112 47.72 40.9812 47.72C42.5412 47.72 43.6712 48.94 43.6712 50.4V50.42C43.6712 51.89 42.5212 53.12 40.9612 53.12ZM40.9812 52.43C42.1012 52.43 42.8812 51.52 42.8812 50.44V50.42C42.8812 49.31 42.0512 48.4 40.9612 48.4C39.8412 48.4 39.0712 49.31 39.0712 50.4V50.42C39.0712 51.53 39.8912 52.43 40.9812 52.43ZM45.0661 53V47.83H48.8261V48.53H45.8361V53H45.0661ZM49.9879 53V47.83H50.7579V51.84L53.8979 47.83H54.6379V53H53.8779V48.98L50.7079 53H49.9879ZM59.7549 53V51.18C59.3449 51.29 58.7849 51.4 58.2749 51.4C56.9549 51.4 56.1749 50.83 56.1749 49.47V47.83H56.9349V49.41C56.9349 50.33 57.3949 50.69 58.3649 50.69C58.8549 50.69 59.3049 50.61 59.7549 50.48V47.83H60.5249V53H59.7549ZM64.5038 53.12C63.0938 53.12 61.9238 52.03 61.9238 50.43V50.41C61.9238 48.92 62.9638 47.72 64.4038 47.72C65.9338 47.72 66.8138 48.94 66.8138 50.45C66.8138 50.56 66.8138 50.61 66.8038 50.7H62.7038C62.8138 51.82 63.6038 52.45 64.5238 52.45C65.2438 52.45 65.7238 52.16 66.1538 51.72L66.6338 52.15C66.1138 52.74 65.4938 53.12 64.5038 53.12ZM62.7038 50.13H66.0338C65.9538 49.2 65.4238 48.37 64.3838 48.37C63.4738 48.37 62.8138 49.13 62.7038 50.13ZM70.4918 53.12C68.9718 53.12 67.8418 51.89 67.8418 50.44V50.42C67.8418 48.95 68.9718 47.72 70.4918 47.72C71.4718 47.72 72.0718 48.12 72.5618 48.64L72.0518 49.18C71.6418 48.75 71.1918 48.4 70.4818 48.4C69.4318 48.4 68.6318 49.28 68.6318 50.4V50.42C68.6318 51.54 69.4518 52.43 70.5318 52.43C71.2018 52.43 71.7018 52.1 72.1118 51.66L72.6018 52.12C72.0818 52.71 71.4618 53.12 70.4918 53.12ZM74.6446 47.83V50.05H75.5846L77.5146 47.83H78.4746L76.2046 50.36L78.5346 53H77.5746L75.6046 50.73H74.6446V53H73.8746V47.83H74.6446ZM81.0396 53.11C80.0796 53.11 79.1096 52.57 79.1096 51.5V51.48C79.1096 50.4 80.0096 49.81 81.3196 49.81C81.9896 49.81 82.4396 49.9 82.9096 50.03V49.85C82.9096 48.92 82.3396 48.44 81.3696 48.44C80.7596 48.44 80.2796 48.59 79.7996 48.82L79.5696 48.19C80.1396 47.92 80.6896 47.76 81.4496 47.76C82.1796 47.76 82.7396 47.95 83.1196 48.33C83.4696 48.68 83.6496 49.19 83.6496 49.84V53H82.9096V52.22C82.5496 52.69 81.9596 53.11 81.0396 53.11ZM81.1896 52.5C82.1496 52.5 82.9196 51.92 82.9196 51.1V50.6C82.5296 50.49 82.0396 50.38 81.3996 50.38C80.4296 50.38 79.8896 50.8 79.8896 51.45V51.47C79.8896 52.12 80.4996 52.5 81.1896 52.5ZM85.8507 53H84.9307L86.4407 51.01C85.6107 50.82 85.1207 50.27 85.1207 49.47V49.46C85.1207 48.47 85.9107 47.83 87.1407 47.83H89.6407V53H88.8807V51.08H87.2807L85.8507 53ZM88.8807 48.47H87.1507C86.3807 48.47 85.8907 48.87 85.8907 49.46V49.47C85.8907 50.07 86.3507 50.47 87.1507 50.46H88.8807V48.47ZM95.1427 47.83V50.05H96.0827L98.0127 47.83H98.9727L96.7027 50.36L99.0327 53H98.0727L96.1027 50.73H95.1427V53H94.3727V47.83H95.1427ZM102.577 47.79L104.927 53H104.067L102.217 48.74L100.357 53H99.5268L101.867 47.79H102.577ZM106.14 53V47.83H106.91V51.84L110.05 47.83H110.79V53H110.03V48.98L106.86 53H106.14ZM112.517 53V47.83H113.287V50.04H116.377V47.83H117.137V53H116.377V50.74H113.287V53H112.517ZM118.865 53V47.83H119.635V51.84L122.775 47.83H123.515V53H122.755V48.98L119.585 53H118.865ZM126.012 47.83V50.05H126.952L128.882 47.83H129.842L127.572 50.36L129.902 53H128.942L126.972 50.73H126.012V53H125.242V47.83H126.012ZM132.407 53.11C131.447 53.11 130.477 52.57 130.477 51.5V51.48C130.477 50.4 131.377 49.81 132.687 49.81C133.357 49.81 133.807 49.9 134.277 50.03V49.85C134.277 48.92 133.707 48.44 132.737 48.44C132.127 48.44 131.647 48.59 131.167 48.82L130.937 48.19C131.507 47.92 132.057 47.76 132.817 47.76C133.547 47.76 134.107 47.95 134.487 48.33C134.837 48.68 135.017 49.19 135.017 49.84V53H134.277V52.22C133.917 52.69 133.327 53.11 132.407 53.11ZM132.557 52.5C133.517 52.5 134.287 51.92 134.287 51.1V50.6C133.897 50.49 133.407 50.38 132.767 50.38C131.797 50.38 131.257 50.8 131.257 51.45V51.47C131.257 52.12 131.867 52.5 132.557 52.5Z" fill="#405F6A"/>
</svg>
