<svg width="125" height="27" viewBox="0 0 125 27" fill="none" xmlns="http://www.w3.org/2000/svg">
<path d="M39.6649 26.5598C37.147 26.5598 35.1108 25.7497 33.5563 24.1294C32.0236 22.5092 31.2573 20.4511 31.2573 17.9551C31.2573 15.3278 32.0784 13.2149 33.7205 11.6166C35.3845 10.0183 37.3003 9.21912 39.4678 9.21912C41.5697 9.21912 43.3432 9.83217 44.7883 11.0583C46.2333 12.2625 47.1201 13.9922 47.4485 16.2473H34.2459V16.6414C34.2459 19.0718 34.848 21.0094 36.0523 22.4545C37.2565 23.8996 38.8329 24.6221 40.7815 24.6221C43.9344 24.6221 45.9487 23.1004 46.8245 20.057H47.7112C47.2514 22.2027 46.3318 23.8229 44.9525 24.9177C43.595 26.0124 41.8325 26.5598 39.6649 26.5598ZM39.4022 10.1715C38.1323 10.1715 37.0266 10.6094 36.0851 11.4852C35.1655 12.3391 34.5853 13.5543 34.3445 15.1307H44.0657C43.9344 13.4667 43.4417 12.2296 42.5878 11.4195C41.7558 10.5875 40.6939 10.1715 39.4022 10.1715Z" fill="white"/>
<path d="M64.7154 25.9802H61.7596V10.7086H55.4868C55.4868 17.912 55.027 22.4661 54.1074 24.3709C53.4287 25.7065 52.5201 26.3743 51.3815 26.3743C50.8998 26.3743 50.5167 26.2539 50.232 26.013C49.9693 25.7941 49.8379 25.4766 49.8379 25.0606C49.8379 24.7541 49.9146 24.4804 50.0678 24.2395C50.243 23.9987 50.4182 23.8126 50.5933 23.6812C50.7904 23.5499 51.0859 23.3857 51.48 23.1886C52.2026 22.8164 52.7171 22.3894 53.0236 21.9078C53.3302 21.4261 53.571 20.3642 53.7462 18.7221C53.9432 17.08 54.0417 14.5621 54.0417 11.1684V9.49342H64.7154V25.9802Z" fill="white"/>
<path d="M70.2899 25.9802V9.49342H73.2457V23.3856L81.6533 9.49342H84.609V25.9802H81.6533V12.088L73.2457 25.9802H70.2899Z" fill="white"/>
<path d="M93.8195 10.7086H87.7437V9.49342H102.851V10.7086H96.7753V25.9802H93.8195V10.7086Z" fill="white"/>
<path d="M109.476 26.3743C107.944 26.3743 106.674 25.9802 105.667 25.192C104.659 24.3819 104.156 23.3309 104.156 22.0391C104.156 18.8644 107.757 16.9267 114.961 16.2261V15.0437C114.961 13.2922 114.665 12.0113 114.074 11.2012C113.505 10.3692 112.607 9.95321 111.381 9.95321C110.002 9.95321 109.038 10.3145 108.491 11.037C108.294 11.2778 108.173 11.5515 108.13 11.8581C108.086 12.1646 108.086 12.5258 108.13 12.9418C108.173 13.3578 108.195 13.5877 108.195 13.6315C108.195 14.0694 108.064 14.4197 107.801 14.6825C107.539 14.9452 107.199 15.0766 106.783 15.0766C106.323 15.0766 105.951 14.9343 105.667 14.6496C105.404 14.365 105.272 13.9818 105.272 13.5002C105.272 12.3178 105.875 11.2778 107.079 10.3802C108.283 9.48247 109.783 9.03363 111.578 9.03363C113.68 9.03363 115.256 9.50437 116.307 10.4458C117.358 11.3873 117.873 12.9856 117.851 15.2408L117.818 22.7945C117.818 23.5827 117.906 24.141 118.081 24.4694C118.278 24.776 118.595 24.9292 119.033 24.9292C119.756 24.9292 120.369 24.4913 120.872 23.6155L121.398 23.9111C120.697 25.5313 119.515 26.3414 117.851 26.3414C116.997 26.3414 116.307 26.0678 115.782 25.5204C115.278 24.973 115.027 24.141 115.027 23.0244V22.1048C114.37 24.9511 112.52 26.3743 109.476 26.3743ZM110.856 24.9621C111.95 24.9621 112.903 24.568 113.713 23.7798C114.545 22.9915 114.961 21.7654 114.961 20.1014V17.0143C113.8 17.1675 112.793 17.3536 111.939 17.5726C111.107 17.7696 110.319 18.0433 109.575 18.3936C108.852 18.744 108.305 19.1819 107.933 19.7073C107.56 20.2328 107.374 20.8459 107.374 21.5465C107.374 22.488 107.692 23.2981 108.327 23.9768C108.962 24.6336 109.805 24.9621 110.856 24.9621Z" fill="white"/>
<path d="M12.7646 26.637V23.4185C8.80168 23.1995 5.71452 22.2471 3.50315 20.5612C1.31367 18.8753 0.218933 16.653 0.218933 13.8942C0.218933 10.7633 1.31367 8.30013 3.50315 6.50476C5.22853 5.07269 7.51137 4.1301 10.3517 3.67699V5.18238C8.61791 5.51979 7.19991 6.12479 6.09768 6.99739C4.54315 8.2235 3.76588 10.2159 3.76588 12.9747C3.76588 15.821 4.51031 17.9557 5.99915 19.3789C7.50989 20.802 9.76505 21.634 12.7646 21.8749V5.18755L12.7657 5.18645L12.7646 0.363281H16.2787V3.4176C20.2417 3.63655 23.3179 4.58897 25.5074 6.27487C27.7188 7.93887 28.8244 10.1502 28.8244 12.909C28.8244 16.0399 27.7297 18.514 25.5402 20.3313C23.814 21.7468 21.5298 22.6792 18.6876 23.1284V21.6184C20.4049 21.2805 21.8133 20.6763 22.9129 19.8058C24.4893 18.5578 25.2775 16.5654 25.2775 13.8286C25.2775 10.9822 24.5221 8.8475 23.0114 7.42434C21.5225 6.00118 19.2783 5.16918 16.2787 4.92834V20.4968L16.2736 20.4961V26.0769L16.2787 26.0714V26.637H12.7646Z" fill="white"/>
<path fill-rule="evenodd" clip-rule="evenodd" d="M33.3983 24.2812L33.3972 24.2801C31.8214 22.6143 31.0384 20.5001 31.0384 17.9553C31.0384 15.2783 31.877 13.1056 33.5678 11.4599L33.5688 11.4589C35.2707 9.82418 37.2398 9.00037 39.4679 9.00037C41.6152 9.00037 43.4403 9.62792 44.9292 10.8909C46.4236 12.1366 47.3307 13.9196 47.6652 16.216L47.7016 16.4665H34.4649V16.6416C34.4649 19.036 35.0576 20.9191 36.2205 22.3145C37.3814 23.7076 38.8952 24.4033 40.7815 24.4033C42.3224 24.4033 43.5644 24.0319 44.5249 23.3063C45.4856 22.5806 46.1859 21.4846 46.6141 19.9967L46.6597 19.8383H47.9821L47.9253 20.1031C47.4576 22.2855 46.5171 23.9554 45.0893 25.0888C43.6843 26.2216 41.8697 26.7789 39.6649 26.7789C37.0953 26.7789 34.9993 25.9499 33.3983 24.2812ZM44.9525 24.9179C46.2845 23.8607 47.1878 22.3134 47.6623 20.2762C47.6791 20.2038 47.6955 20.1308 47.7112 20.0572H46.8245C45.9487 23.1006 43.9344 24.6223 40.7815 24.6223C38.8329 24.6223 37.2565 23.8998 36.0523 22.4547C34.8481 21.0096 34.246 19.072 34.246 16.6416V16.2475H47.4485C47.4378 16.174 47.4265 16.101 47.4146 16.0286C47.0616 13.8801 46.1862 12.2234 44.7883 11.0585C43.3432 9.83237 41.5697 9.21932 39.4679 9.21932C37.3003 9.21932 35.3845 10.0185 33.7205 11.6168C32.0784 13.2151 31.2573 15.328 31.2573 17.9553C31.2573 20.4513 32.0236 22.5094 33.5563 24.1297C35.1108 25.7499 37.147 26.56 39.6649 26.56C41.8325 26.56 43.595 26.0126 44.9525 24.9179ZM36.2341 11.6459C35.4079 12.413 34.8595 13.4953 34.6029 14.912H43.8261C43.6709 13.4015 43.1989 12.3013 42.4372 11.5786L42.433 11.5746C41.6463 10.7879 40.6421 10.3907 39.4022 10.3907C38.1884 10.3907 37.1356 10.8072 36.2341 11.6459ZM44.0461 14.912C44.0534 14.9841 44.0599 15.0571 44.0658 15.1309H34.3445C34.3558 15.0571 34.3678 14.9841 34.3805 14.912C34.6404 13.4415 35.2086 12.2994 36.0851 11.4854C37.0266 10.6096 38.1323 10.1717 39.4022 10.1717C40.694 10.1717 41.7559 10.5877 42.5879 11.4197C43.4039 12.1939 43.89 13.358 44.0461 14.912ZM64.9344 26.1993H61.5407V10.9277H55.7056C55.701 14.4337 55.586 17.3081 55.3598 19.5489C55.1296 21.8288 54.7823 23.4768 54.3046 24.4663L54.3027 24.4703C53.6004 25.8522 52.6291 26.5934 51.3815 26.5934C50.8639 26.5934 50.4258 26.4636 50.0914 26.181C50.0911 26.1808 50.0909 26.1806 50.0906 26.1804L50.2321 26.0132L50.0914 26.181C50.0912 26.1809 50.0916 26.1812 50.0914 26.181C49.7683 25.9115 49.619 25.5261 49.619 25.0608C49.619 24.7158 49.7058 24.4008 49.8831 24.1222L49.8904 24.1107C50.0741 23.8581 50.2643 23.6545 50.4619 23.5063L50.4717 23.499C50.6799 23.3601 50.9849 23.1916 51.3809 22.9936C51.3805 22.9938 51.3802 22.994 51.3798 22.9942L51.4801 23.1888L51.3821 22.993C51.3817 22.9932 51.3813 22.9934 51.3809 22.9936C52.0821 22.6322 52.5604 22.2281 52.8389 21.7904C52.9714 21.5822 53.1017 21.2263 53.2206 20.7018C53.3385 20.1823 53.4414 19.5155 53.5285 18.699L53.5288 18.6962C53.7242 17.0677 53.8228 14.5606 53.8228 11.1686V9.27467H64.9344V26.1993ZM61.7596 10.9277V10.7088H61.5407M55.7057 10.7088H55.4868H55.7057ZM50.0678 24.2397C50.243 23.9989 50.4182 23.8128 50.5933 23.6814L50.0678 24.2397ZM70.0709 26.1993V9.27467H73.4646V22.6012L81.5298 9.27467H84.828V26.1993H81.4343V12.8728L73.3691 26.1993H70.0709ZM81.6533 12.0882V25.9804H84.609V9.49362H81.6533L73.2457 23.3858V9.49362H70.2899V25.9804H73.2457L81.6533 12.0882ZM87.5247 10.9277V9.27467H103.07V10.9277H96.9942V26.1993H93.6005V10.9277H87.5247ZM93.8195 10.7088V25.9804H96.7753V10.7088H102.851V9.49362H87.7437V10.7088H93.8195ZM105.532 25.3646L105.529 25.3628C104.47 24.5111 103.937 23.3975 103.937 22.0393C103.937 20.3475 104.905 19.0063 106.753 18.0122C108.559 17.0409 111.228 16.3841 114.742 16.028V15.0439C114.742 13.308 114.447 12.0842 113.897 11.3305L113.893 11.3251C113.374 10.5661 112.553 10.1724 111.381 10.1724C110.033 10.1724 109.153 10.5254 108.665 11.1694L108.661 11.1759C108.489 11.386 108.385 11.6224 108.346 11.8892C108.306 12.1729 108.305 12.5152 108.347 12.9191C108.369 13.1274 108.386 13.2897 108.397 13.4057C108.407 13.5149 108.414 13.5967 108.414 13.6317C108.414 14.1165 108.267 14.5264 107.956 14.8375C107.647 15.1464 107.25 15.2957 106.783 15.2957C106.274 15.2957 105.843 15.1363 105.512 14.8047L105.506 14.7985C105.197 14.4642 105.053 14.0231 105.053 13.5004C105.053 12.2306 105.705 11.1315 106.948 10.2048C108.197 9.27377 109.745 8.81488 111.578 8.81488C113.708 8.81488 115.347 9.29141 116.453 10.283C117.573 11.286 118.092 12.9618 118.07 15.2427C118.07 15.2425 118.07 15.2428 118.07 15.2427L118.037 22.7947C118.037 22.7944 118.037 22.795 118.037 22.7947C118.037 23.5707 118.125 24.0798 118.27 24.3587C118.418 24.5845 118.657 24.7105 119.033 24.7105C119.648 24.7105 120.201 24.3447 120.683 23.5066L120.791 23.3186L121.677 23.8172L121.599 23.9982C121.236 24.8374 120.742 25.4814 120.109 25.9147C119.476 26.3485 118.72 26.5606 117.851 26.5606C116.946 26.5606 116.196 26.2682 115.624 25.6722L115.621 25.6689C115.136 25.1418 114.878 24.3926 114.82 23.4496C114.454 24.2913 113.942 24.9709 113.28 25.4807C112.306 26.2295 111.031 26.5934 109.476 26.5934C107.905 26.5934 106.584 26.1886 105.532 25.3646ZM114.808 22.876C114.008 25.2083 112.231 26.3745 109.476 26.3745C107.944 26.3745 106.674 25.9804 105.667 25.1922C104.659 24.3821 104.156 23.3311 104.156 22.0393C104.156 18.8646 107.757 16.9269 114.961 16.2263V15.0439C114.961 13.2924 114.665 12.0115 114.074 11.2014C113.505 10.3694 112.607 9.95341 111.381 9.95341C110.002 9.95341 109.038 10.3147 108.491 11.0372C108.294 11.278 108.173 11.5517 108.13 11.8583C108.086 12.1648 108.086 12.526 108.13 12.942C108.173 13.358 108.195 13.5879 108.195 13.6317C108.195 14.0696 108.064 14.4199 107.801 14.6827C107.539 14.9454 107.199 15.0768 106.783 15.0768C106.323 15.0768 105.951 14.9345 105.667 14.6498C105.404 14.3652 105.272 13.982 105.272 13.5004C105.272 12.318 105.875 11.278 107.079 10.3804C108.283 9.48267 109.783 9.03383 111.578 9.03383C113.68 9.03383 115.256 9.50457 116.307 10.446C117.358 11.3875 117.873 12.9858 117.851 15.241L117.818 22.7947C117.818 23.5829 117.906 24.1412 118.081 24.4696C118.278 24.7762 118.595 24.9294 119.033 24.9294C119.756 24.9294 120.369 24.4916 120.872 23.616C120.872 23.6161 120.872 23.6159 120.872 23.616L121.398 23.9113C120.697 25.5315 119.515 26.3416 117.851 26.3416C116.997 26.3416 116.307 26.068 115.782 25.5206C115.278 24.9732 115.027 24.1412 115.027 23.0246V22.105C114.964 22.3748 114.891 22.6318 114.808 22.876ZM113.56 23.623L113.562 23.621C114.334 22.8898 114.742 21.7329 114.742 20.1016V17.2651C113.692 17.4108 112.776 17.5843 111.994 17.7849L111.99 17.7859C111.172 17.9795 110.399 18.2481 109.669 18.5915C108.972 18.9295 108.457 19.3456 108.111 19.8341C107.768 20.3193 107.593 20.8872 107.593 21.5467C107.593 22.4328 107.89 23.1888 108.485 23.8262C109.073 24.4329 109.855 24.7433 110.856 24.7433C111.891 24.7433 112.789 24.3729 113.56 23.623ZM108.327 23.977C107.692 23.2983 107.374 22.4882 107.374 21.5467C107.374 20.8461 107.56 20.233 107.933 19.7075C108.305 19.1821 108.852 18.7442 109.575 18.3938C110.319 18.0435 111.107 17.7698 111.939 17.5728C112.739 17.3677 113.673 17.1915 114.742 17.044C114.814 17.034 114.887 17.0242 114.961 17.0145V20.1016C114.961 21.7656 114.545 22.9917 113.713 23.78C112.903 24.5682 111.95 24.9623 110.856 24.9623C109.805 24.9623 108.962 24.6339 108.327 23.977ZM18.6876 21.6186C20.4049 21.2807 21.8133 20.6765 22.9129 19.806C24.4893 18.558 25.2775 16.5656 25.2775 13.8288C25.2775 10.9824 24.5221 8.8477 23.0114 7.42454C21.559 6.03622 19.3878 5.21047 16.4977 4.94729C16.4252 4.94068 16.3522 4.93443 16.2788 4.92854V20.4963H16.2736V26.0771L16.2788 26.0716V26.6372H12.7646V23.4187C8.80169 23.1997 5.71453 22.2473 3.50316 20.5614C1.31369 18.8755 0.218948 16.6532 0.218948 13.8944C0.218948 10.7635 1.31369 8.30033 3.50316 6.50496C5.18398 5.10988 7.39384 4.17932 10.1327 3.71328C10.2054 3.70092 10.2783 3.68889 10.3517 3.67719V5.18258C8.61792 5.51999 7.19992 6.12499 6.09769 6.99759C4.54316 8.2237 3.7659 10.2161 3.7659 12.9749C3.7659 15.8212 4.51032 17.9559 5.99916 19.3791C7.47292 20.7674 9.6551 21.5932 12.5457 21.8563C12.6182 21.8629 12.6912 21.8692 12.7646 21.8751V5.18775L12.7657 5.18665L12.7646 0.363479H16.2788V3.4178C20.2417 3.63675 23.3179 4.58917 25.5074 6.27506C27.7188 7.93907 28.8245 10.1504 28.8245 12.9092C28.8245 16.0401 27.7297 18.5142 25.5402 20.3315C23.8586 21.7105 21.6473 22.6309 18.9065 23.0928C18.8339 23.1051 18.7609 23.117 18.6876 23.1286V21.6186ZM25.6401 6.1009C27.9055 7.80602 29.0434 10.0818 29.0434 12.9092C29.0434 16.0979 27.9251 18.6366 25.6801 20.5L25.6791 20.5008C23.9153 21.9471 21.5915 22.8913 18.7218 23.3448L18.4686 23.3848V21.4385L18.6453 21.4037C20.3367 21.0709 21.7107 20.4785 22.777 19.6344C24.2836 18.4416 25.0586 16.5245 25.0586 13.8288C25.0586 11.0196 24.3137 8.95214 22.8613 7.58391L22.8601 7.58282C21.4596 6.24405 19.3494 5.4297 16.4977 5.16715V20.7478L16.4925 20.7471V25.5202L16.4977 25.5146V26.8561H12.5457V23.6251C8.65523 23.3834 5.58943 22.4272 3.37042 20.7355L3.36958 20.7349C1.12638 19.0076 0 16.7213 0 13.8944C0 10.706 1.11819 8.17772 3.36384 6.33605C5.12677 4.87301 7.44917 3.91851 10.3172 3.46098L10.5706 3.42055V5.36302L10.3935 5.39749C8.6855 5.72989 7.30223 6.32325 6.23359 7.16926C4.75028 8.33919 3.98485 10.2553 3.98485 12.9749C3.98485 15.7845 4.71907 17.8522 6.14988 19.2203C7.57219 20.5598 9.69392 21.374 12.5457 21.6365V5.10167L12.5467 5.10059L12.5457 0.144531H16.4977V3.21132C20.3871 3.45306 23.4423 4.40895 25.6401 6.1009Z" fill="white"/>
<path fill-rule="evenodd" clip-rule="evenodd" d="M121.051 1.3633C120.446 1.3633 119.956 1.85343 119.956 2.45803V3.10723H119.314C118.709 3.10723 118.219 3.59736 118.219 4.20197L118.219 4.32705C118.219 4.93166 118.709 5.42179 119.314 5.42179H119.956V6.07119C119.956 6.6758 120.446 7.16593 121.051 7.16593H121.189C121.794 7.16593 122.284 6.6758 122.284 6.07119V5.42179H122.927C123.532 5.42179 124.022 4.93166 124.022 4.32705V4.20197C124.022 3.59736 123.532 3.10723 122.927 3.10723H122.284V2.45803C122.284 1.85343 121.794 1.3633 121.189 1.3633H121.051Z" fill="#FF4D4D"/>
</svg>
