<svg width="16" height="16" viewBox="0 0 16 16" fill="none" xmlns="http://www.w3.org/2000/svg">
<path d="M12.2187 15C11.6087 15 10.7519 14.7794 9.46873 14.0625C7.90842 13.1875 6.70155 12.3797 5.14967 10.8319C3.65342 9.33658 2.9253 8.36845 1.90623 6.51408C0.754983 4.42033 0.951233 3.32283 1.17061 2.85377C1.43186 2.29314 1.81748 1.95783 2.31592 1.62502C2.59903 1.43953 2.89863 1.28052 3.21092 1.15002C3.24217 1.13658 3.27123 1.12377 3.29717 1.1122C3.45186 1.04252 3.68623 0.937203 3.98311 1.0497C4.18123 1.12408 4.35811 1.27627 4.63498 1.5497C5.2028 2.1097 5.97873 3.35689 6.26498 3.96939C6.45717 4.3822 6.58436 4.6547 6.58467 4.96033C6.58467 5.31814 6.40467 5.59408 6.18623 5.89189C6.1453 5.94783 6.10467 6.00127 6.0653 6.05314C5.82748 6.36564 5.7753 6.45595 5.80967 6.6172C5.87936 6.94127 6.39905 7.90595 7.25311 8.75814C8.10717 9.61033 9.04405 10.0972 9.36936 10.1666C9.53748 10.2025 9.62967 10.1481 9.95217 9.90189C9.99842 9.86658 10.0459 9.83002 10.0956 9.79345C10.4287 9.54564 10.6919 9.37033 11.0412 9.37033H11.0431C11.3472 9.37033 11.6075 9.5022 12.0387 9.7197C12.6012 10.0035 13.8859 10.7694 14.4494 11.3378C14.7234 11.6141 14.8762 11.7903 14.9509 11.9881C15.0634 12.286 14.9575 12.5194 14.8884 12.6756C14.8769 12.7016 14.864 12.73 14.8506 12.7616C14.7191 13.0733 14.5591 13.3723 14.3728 13.6547C14.0406 14.1516 13.704 14.5363 13.1422 14.7978C12.8537 14.9343 12.5379 15.0035 12.2187 15Z" fill="#625B5A"/>
</svg>
