<svg width="128" height="20" viewBox="0 0 128 20" fill="none" xmlns="http://www.w3.org/2000/svg">
<path d="M7.16812 6.48056H2.28259V14.9641H0V4.3084H9.45073V14.9641H7.16812V6.48056Z" fill="white"/>
<path d="M11.6719 4.3084H13.9545V5.47643C14.4217 5.02561 14.9222 4.67726 15.4562 4.43135C15.9901 4.18545 16.5908 4.0625 17.2582 4.0625C18.0057 4.0625 18.6932 4.20594 19.3206 4.49282C19.9613 4.76605 20.5086 5.15539 20.9624 5.66086C21.4163 6.15266 21.77 6.74012 22.0237 7.42312C22.2773 8.09256 22.4041 8.82344 22.4041 9.61575C22.4041 10.4354 22.2639 11.1868 21.9836 11.8699C21.7166 12.5393 21.3495 13.1199 20.8823 13.6117C20.4152 14.0898 19.8545 14.4655 19.2005 14.7388C18.5597 15.0119 17.8723 15.1486 17.1381 15.1486C16.484 15.1486 15.8967 15.0461 15.3761 14.8412C14.8555 14.6362 14.3816 14.3494 13.9545 13.9806V19.0625H11.6719V4.3084ZM16.7977 12.9764C17.2516 12.9764 17.672 12.9013 18.0591 12.751C18.4596 12.6007 18.8067 12.3822 19.1003 12.0953C19.394 11.7948 19.6209 11.4396 19.7811 11.0297C19.9546 10.6062 20.0414 10.1281 20.0414 9.59531C20.0414 9.1035 19.968 8.65269 19.8211 8.24281C19.6743 7.81931 19.4607 7.46412 19.1804 7.17725C18.9134 6.87669 18.5931 6.64444 18.2193 6.48056C17.8456 6.31663 17.4318 6.23463 16.9779 6.23463C16.2838 6.23463 15.6697 6.40538 15.1358 6.74694C14.6152 7.08844 14.2215 7.49831 13.9545 7.97644V11.2141C14.2215 11.7879 14.6019 12.2251 15.0958 12.5256C15.5896 12.8262 16.157 12.9764 16.7977 12.9764Z" fill="white"/>
<path d="M23.5898 9.61575C23.5898 8.80975 23.7233 8.07206 23.9903 7.40269C24.2573 6.71963 24.6377 6.13217 25.1316 5.64037C25.6255 5.14856 26.2129 4.76605 26.8936 4.49282C27.5744 4.20594 28.3286 4.0625 29.1562 4.0625C29.9705 4.0625 30.718 4.20594 31.3988 4.49282C32.0929 4.76605 32.6869 5.14856 33.1808 5.64037C33.6747 6.13217 34.0551 6.71963 34.3221 7.40269C34.6024 8.07206 34.7425 8.80975 34.7425 9.61575C34.7425 10.4218 34.6024 11.1663 34.3221 11.8494C34.0551 12.5188 33.6747 13.0994 33.1808 13.5912C32.6869 14.083 32.0929 14.4655 31.3988 14.7388C30.718 15.0119 29.9705 15.1486 29.1562 15.1486C28.3419 15.1486 27.5944 15.0119 26.9136 14.7388C26.2329 14.4655 25.6455 14.083 25.1516 13.5912C24.6577 13.0994 24.2706 12.5188 23.9903 11.8494C23.7233 11.1663 23.5898 10.4218 23.5898 9.61575ZM25.9525 9.61575C25.9525 10.0939 26.026 10.5379 26.1728 10.9477C26.333 11.3576 26.5532 11.7127 26.8335 12.0133C27.1139 12.3139 27.4476 12.5529 27.8347 12.7306C28.2351 12.8944 28.6757 12.9764 29.1562 12.9764C29.6367 12.9764 30.0705 12.9013 30.4577 12.751C30.8581 12.5871 31.1985 12.3617 31.4789 12.0748C31.7592 11.7743 31.9794 11.4191 32.1396 11.0092C32.2998 10.5994 32.3798 10.1349 32.3798 9.61575C32.3798 9.09662 32.2931 8.63219 32.1196 8.22231C31.9594 7.79881 31.7325 7.44362 31.4388 7.15675C31.1451 6.85619 30.8047 6.63081 30.4176 6.48056C30.0305 6.31663 29.6101 6.23463 29.1562 6.23463C28.7023 6.23463 28.2752 6.31663 27.8747 6.48056C27.4876 6.63081 27.1473 6.85619 26.8536 7.15675C26.5733 7.44362 26.353 7.79881 26.1928 8.22231C26.0326 8.63219 25.9525 9.09662 25.9525 9.61575Z" fill="white"/>
<path d="M35.3516 12.792H36.557C37.0257 12.1772 37.3405 11.4737 37.5012 10.6814C37.662 9.889 37.7423 8.99419 37.7423 7.99694V4.3084H46.14V12.792H47.6066V17.4027H45.477V14.9641H37.4811V17.4027H35.3516V12.792ZM43.8497 12.792V6.48056H39.912V9.20594C39.912 9.86169 39.825 10.5174 39.6508 11.1731C39.4768 11.8152 39.2357 12.3549 38.9276 12.792H43.8497Z" fill="white"/>
<path d="M48.0723 9.61575C48.0723 8.80975 48.2062 8.07206 48.4741 7.40269C48.7419 6.71963 49.1236 6.13217 49.6192 5.64037C50.1147 5.14856 50.7041 4.76605 51.3871 4.49282C52.0702 4.20594 52.8269 4.0625 53.6573 4.0625C54.4743 4.0625 55.2244 4.20594 55.9074 4.49282C56.6039 4.76605 57.1999 5.14856 57.6954 5.64037C58.191 6.13217 58.5727 6.71963 58.8405 7.40269C59.1218 8.07206 59.2625 8.80975 59.2625 9.61575C59.2625 10.4218 59.1218 11.1663 58.8405 11.8494C58.5727 12.5188 58.191 13.0994 57.6954 13.5912C57.1999 14.083 56.6039 14.4655 55.9074 14.7388C55.2244 15.0119 54.4743 15.1486 53.6573 15.1486C52.8403 15.1486 52.0902 15.0119 51.4072 14.7388C50.7241 14.4655 50.1348 14.083 49.6393 13.5912C49.1437 13.0994 48.7553 12.5188 48.4741 11.8494C48.2062 11.1663 48.0723 10.4218 48.0723 9.61575ZM50.4429 9.61575C50.4429 10.0939 50.5165 10.5379 50.6638 10.9477C50.8246 11.3576 51.0456 11.7127 51.3268 12.0133C51.6081 12.3139 51.9429 12.5529 52.3314 12.7306C52.7332 12.8944 53.1751 12.9764 53.6573 12.9764C54.1395 12.9764 54.5747 12.9013 54.9632 12.751C55.365 12.5871 55.7065 12.3617 55.9878 12.0748C56.269 11.7743 56.49 11.4191 56.6508 11.0092C56.8114 10.5994 56.8918 10.1349 56.8918 9.61575C56.8918 9.09662 56.8048 8.63219 56.6306 8.22231C56.4699 7.79881 56.2423 7.44362 55.9476 7.15675C55.6529 6.85619 55.3114 6.63081 54.923 6.48056C54.5346 6.31663 54.1127 6.23463 53.6573 6.23463C53.202 6.23463 52.7733 6.31663 52.3715 6.48056C51.9832 6.63081 51.6416 6.85619 51.3469 7.15675C51.0657 7.44362 50.8447 7.79881 50.684 8.22231C50.5232 8.63219 50.4429 9.09662 50.4429 9.61575Z" fill="white"/>
<path d="M60.6797 4.3084H62.9699V8.63219L67.4901 4.3084H70.4835L65.4007 9.124L70.6645 14.9641H67.7315L63.7336 10.5789L62.9699 11.3371V14.9641H60.6797V4.3084Z" fill="white"/>
<path d="M71.3867 4.3084H81.2311V6.48056H77.4539V14.9641H75.1639V6.48056H71.3867V4.3084Z" fill="white"/>
<path d="M81.7324 9.61575C81.7324 8.80975 81.8665 8.07206 82.1347 7.40269C82.4023 6.71963 82.7839 6.13217 83.2794 5.64037C83.7749 5.14856 84.3644 4.76605 85.0476 4.49282C85.7303 4.20594 86.4873 4.0625 87.3175 4.0625C88.1349 4.0625 88.8846 4.20594 89.5679 4.49282C90.2645 4.76605 90.86 5.14856 91.3556 5.64037C91.8511 6.13217 92.2333 6.71963 92.5009 7.40269C92.7825 8.07206 92.9227 8.80975 92.9227 9.61575C92.9227 10.4218 92.7825 11.1663 92.5009 11.8494C92.2333 12.5188 91.8511 13.0994 91.3556 13.5912C90.86 14.083 90.2645 14.4655 89.5679 14.7388C88.8846 15.0119 88.1349 15.1486 87.3175 15.1486C86.5007 15.1486 85.7504 15.0119 85.0677 14.7388C84.3845 14.4655 83.795 14.083 83.2995 13.5912C82.804 13.0994 82.4157 12.5188 82.1347 11.8494C81.8665 11.1663 81.7324 10.4218 81.7324 9.61575ZM84.1035 9.61575C84.1035 10.0939 84.1772 10.5379 84.3241 10.9477C84.485 11.3576 84.7057 11.7127 84.9873 12.0133C85.2683 12.3139 85.6035 12.5529 85.9918 12.7306C86.3935 12.8944 86.8354 12.9764 87.3175 12.9764C87.7996 12.9764 88.2354 12.9013 88.6237 12.751C89.0254 12.5871 89.3667 12.3617 89.6483 12.0748C89.9293 11.7743 90.1506 11.4191 90.3109 11.0092C90.4718 10.5994 90.5522 10.1349 90.5522 9.61575C90.5522 9.09662 90.4651 8.63219 90.2907 8.22231C90.1304 7.79881 89.9025 7.44362 89.6081 7.15675C89.3131 6.85619 88.9717 6.63081 88.5835 6.48056C88.1952 6.31663 87.7728 6.23463 87.3175 6.23463C86.8622 6.23463 86.4337 6.31663 86.032 6.48056C85.6437 6.63081 85.3018 6.85619 85.0074 7.15675C84.7258 7.44362 84.5051 7.79881 84.3442 8.22231C84.1839 8.63219 84.1035 9.09662 84.1035 9.61575Z" fill="white"/>
<path d="M94.3223 4.3084H96.6122V5.47643C97.081 5.02561 97.5832 4.67726 98.119 4.43135C98.6548 4.18545 99.2576 4.0625 99.9274 4.0625C100.677 4.0625 101.367 4.20594 101.997 4.49282C102.639 4.76605 103.188 5.15539 103.644 5.66086C104.099 6.15266 104.454 6.74012 104.709 7.42312C104.963 8.09256 105.09 8.82344 105.09 9.61575C105.09 10.4354 104.95 11.1868 104.668 11.8699C104.401 12.5393 104.033 13.1199 103.563 13.6117C103.095 14.0898 102.532 14.4655 101.876 14.7388C101.233 15.0119 100.543 15.1486 99.8068 15.1486C99.1503 15.1486 98.5609 15.0461 98.0385 14.8412C97.5162 14.6362 97.0407 14.3494 96.6122 13.9806V19.0625H94.3223V4.3084ZM99.4654 12.9764C99.9207 12.9764 100.343 12.9013 100.731 12.751C101.132 12.6007 101.481 12.3822 101.776 12.0953C102.07 11.7948 102.298 11.4396 102.459 11.0297C102.633 10.6062 102.72 10.1281 102.72 9.59531C102.72 9.1035 102.646 8.65269 102.499 8.24281C102.352 7.81931 102.137 7.46412 101.856 7.17725C101.588 6.87669 101.267 6.64444 100.892 6.48056C100.516 6.31663 100.101 6.23463 99.6459 6.23463C98.9498 6.23463 98.3335 6.40538 97.7978 6.74694C97.2754 7.08844 96.8804 7.49831 96.6122 7.97644V11.2141C96.8804 11.7879 97.262 12.2251 97.7575 12.5256C98.2531 12.8262 98.8224 12.9764 99.4654 12.9764Z" fill="white"/>
<path d="M106.227 9.61575C106.227 8.80975 106.361 8.07206 106.628 7.40269C106.896 6.71963 107.278 6.13217 107.774 5.64037C108.269 5.14856 108.858 4.76605 109.541 4.49282C110.224 4.20594 110.981 4.0625 111.812 4.0625C112.628 4.0625 113.379 4.20594 114.062 4.49282C114.758 4.76605 115.354 5.14856 115.85 5.64037C116.345 6.13217 116.727 6.71963 116.995 7.40269C117.276 8.07206 117.417 8.80975 117.417 9.61575C117.417 10.4218 117.276 11.1663 116.995 11.8494C116.727 12.5188 116.345 13.0994 115.85 13.5912C115.354 14.083 114.758 14.4655 114.062 14.7388C113.379 15.0119 112.628 15.1486 111.812 15.1486C110.995 15.1486 110.245 15.0119 109.561 14.7388C108.879 14.4655 108.289 14.083 107.794 13.5912C107.298 13.0994 106.91 12.5188 106.628 11.8494C106.361 11.1663 106.227 10.4218 106.227 9.61575ZM108.597 9.61575C108.597 10.0939 108.671 10.5379 108.818 10.9477C108.979 11.3576 109.2 11.7127 109.481 12.0133C109.762 12.3139 110.097 12.5529 110.486 12.7306C110.888 12.8944 111.33 12.9764 111.812 12.9764C112.294 12.9764 112.729 12.9013 113.117 12.751C113.52 12.5871 113.861 12.3617 114.142 12.0748C114.423 11.7743 114.644 11.4191 114.805 11.0092C114.966 10.5994 115.046 10.1349 115.046 9.61575C115.046 9.09662 114.959 8.63219 114.785 8.22231C114.624 7.79881 114.397 7.44362 114.102 7.15675C113.807 6.85619 113.466 6.63081 113.077 6.48056C112.689 6.31663 112.267 6.23463 111.812 6.23463C111.356 6.23463 110.928 6.31663 110.526 6.48056C110.137 6.63081 109.796 6.85619 109.502 7.15675C109.22 7.44362 108.999 7.79881 108.838 8.22231C108.677 8.63219 108.597 9.09662 108.597 9.61575Z" fill="white"/>
<path d="M118.838 4.3084H123.298C124.758 4.3084 125.856 4.52015 126.593 4.94365C127.329 5.36714 127.698 6.09802 127.698 7.13625C127.698 7.62806 127.591 8.04475 127.376 8.38625C127.162 8.72781 126.881 9.03519 126.533 9.30837C127.028 9.49969 127.396 9.82069 127.638 10.2715C127.878 10.7087 127.999 11.2141 127.999 11.7879C127.999 12.8535 127.631 13.6527 126.894 14.1854C126.158 14.7046 125.12 14.9641 123.78 14.9641H118.838V4.3084ZM121.128 10.5584V12.8535H123.559C124.242 12.8535 124.758 12.7647 125.106 12.5871C125.454 12.4095 125.629 12.1226 125.629 11.7264C125.629 11.3029 125.461 11.0024 125.126 10.8248C124.805 10.6472 124.302 10.5584 123.62 10.5584H121.128ZM121.128 6.41906V8.52969H123.82C124.289 8.52969 124.658 8.44094 124.925 8.26331C125.193 8.08575 125.327 7.8125 125.327 7.44362C125.327 7.0065 125.146 6.72644 124.784 6.6035C124.436 6.48056 123.921 6.41906 123.237 6.41906H121.128Z" fill="white"/>
</svg>
