<svg width="14" height="20" viewBox="0 0 14 20" fill="none" xmlns="http://www.w3.org/2000/svg">
<g clip-path="url(#clip0_1919_18027)">
<path d="M1.45097 4.04923C1.28456 4.11485 1.11347 4.28594 1.05019 4.45704C0.984562 4.63282 0.984562 4.8672 1.05019 5.04766C1.09706 5.17657 1.20722 5.29141 3.50644 7.59063L5.91113 10L3.50644 12.4094C1.20722 14.7086 1.09706 14.8234 1.05019 14.9524C0.900187 15.3602 1.08534 15.8125 1.458 15.9508C1.63378 16.0164 1.86816 16.0164 2.04862 15.9508C2.17753 15.9039 2.29237 15.7938 4.59394 13.4945L7.00097 11.0899L9.41034 13.4945C11.7096 15.7938 11.8244 15.9039 11.9533 15.9508C12.3611 16.1008 12.8135 15.9156 12.9517 15.543C13.0174 15.3672 13.0174 15.1328 12.9517 14.9524C12.9049 14.8234 12.7947 14.7086 10.4955 12.4094L8.09081 10L10.4955 7.59063C12.7947 5.29141 12.9049 5.17657 12.9517 5.04766C13.0174 4.8672 13.0174 4.63282 12.9517 4.45704C12.8135 4.08438 12.3611 3.89923 11.9533 4.04923C11.8244 4.0961 11.7096 4.20626 9.41034 6.50548L7.00097 8.91016L4.59394 6.50548C2.29237 4.20626 2.17753 4.0961 2.04862 4.04923C1.8705 3.9836 1.62206 3.9836 1.45097 4.04923Z" fill="#003649"/>
</g>
<defs>
<clipPath id="clip0_1919_18027">
<rect width="12" height="12" fill="white" transform="translate(1 4)"/>
</clipPath>
</defs>
</svg>
