<svg width="12" height="12" viewBox="0 0 12 12" fill="none" xmlns="http://www.w3.org/2000/svg">
<g clip-path="url(#clip0_1919_18099)">
<path d="M0.450968 0.0492268C0.284562 0.114851 0.113468 0.285945 0.0501871 0.457039C-0.0154379 0.63282 -0.0154379 0.867195 0.0501871 1.04766C0.0970621 1.17657 0.207218 1.29141 2.50644 3.59063L4.91113 6.00001L2.50644 8.40938C0.207218 10.7086 0.0970621 10.8234 0.0501871 10.9524C-0.0998129 11.3602 0.0853434 11.8125 0.458 11.9508C0.633781 12.0164 0.868156 12.0164 1.04862 11.9508C1.17753 11.9039 1.29237 11.7938 3.59394 9.49454L6.00097 7.08985L8.41034 9.49454C10.7096 11.7938 10.8244 11.9039 10.9533 11.9508C11.3611 12.1008 11.8135 11.9156 11.9517 11.543C12.0174 11.3672 12.0174 11.1328 11.9517 10.9524C11.9049 10.8234 11.7947 10.7086 9.4955 8.40938L7.09081 6.00001L9.4955 3.59063C11.7947 1.29141 11.9049 1.17657 11.9517 1.04766C12.0174 0.867195 12.0174 0.63282 11.9517 0.457039C11.8135 0.084383 11.3611 -0.100774 10.9533 0.0492268C10.8244 0.0961018 10.7096 0.206258 8.41034 2.50548L6.00097 4.91016L3.59394 2.50548C1.29237 0.206258 1.17753 0.0961018 1.04862 0.0492268C0.8705 -0.0163984 0.622062 -0.0163984 0.450968 0.0492268Z" fill="#405F6A"/>
</g>
<defs>
<clipPath id="clip0_1919_18099">
<rect width="12" height="12" fill="white"/>
</clipPath>
</defs>
</svg>
