<svg width="14" height="22" viewBox="0 0 14 22" fill="none" xmlns="http://www.w3.org/2000/svg">
<path d="M12.6875 5.97154C12.332 6.03169 12.5289 5.84849 8.63242 9.73951L5.03125 13.3379L3.38242 11.6946C1.85664 10.1715 1.72266 10.0458 1.56406 9.9774C1.06367 9.75865 0.475781 9.93091 0.177734 10.3821C0.0519531 10.568 0 10.7512 0 11.0001C0 11.2407 0.0519531 11.4239 0.164062 11.5989C0.207813 11.6672 1.17578 12.6571 2.31602 13.7946C4.58008 16.0559 4.47891 15.9684 4.86719 16.0286C5.09687 16.0669 5.31016 16.0313 5.54805 15.9219C5.71758 15.8426 5.95547 15.6102 9.76719 11.7985C13.6473 7.91841 13.8086 7.75162 13.8961 7.56841C13.9809 7.38794 13.9863 7.3606 13.9863 7.07623C13.9863 6.79732 13.9809 6.76177 13.9016 6.59771C13.6855 6.14107 13.1934 5.88677 12.6875 5.97154Z" fill="white"/>
</svg>
