<svg width="14" height="14" viewBox="0 0 14 14" fill="none" xmlns="http://www.w3.org/2000/svg">
<path d="M12.6875 1.97154C12.332 2.03169 12.5289 1.84849 8.63242 5.73951L5.03125 9.33794L3.38242 7.69458C1.85664 6.17154 1.72266 6.04576 1.56406 5.9774C1.06367 5.75865 0.475781 5.93091 0.177734 6.38208C0.0519531 6.56802 0 6.75123 0 7.00005C0 7.24068 0.0519531 7.42388 0.164062 7.59888C0.207813 7.66724 1.17578 8.65708 2.31602 9.79459C4.58008 12.0559 4.47891 11.9684 4.86719 12.0286C5.09687 12.0669 5.31016 12.0313 5.54805 11.9219C5.71758 11.8426 5.95547 11.6102 9.76719 7.79849C13.6473 3.91841 13.8086 3.75162 13.8961 3.56841C13.9809 3.38794 13.9863 3.3606 13.9863 3.07623C13.9863 2.79732 13.9809 2.76177 13.9016 2.59771C13.6855 2.14107 13.1934 1.88677 12.6875 1.97154Z" fill="#405F6A"/>
</svg>
