<svg width="20" height="20" viewBox="0 0 20 20" fill="none" xmlns="http://www.w3.org/2000/svg">
<g clip-path="url(#clip0_43_15067)">
<path d="M9.33733 0.628904C7.4428 0.749998 5.65373 1.44922 4.12248 2.66015C3.72405 2.97265 2.97795 3.71875 2.65764 4.12109C1.75139 5.26562 1.08342 6.69141 0.802171 8.06641C0.614671 8.98828 0.567796 10.2812 0.684984 11.1914C1.09514 14.3281 3.03264 17.043 5.84123 18.418C7.11467 19.0391 8.26701 19.3242 9.68889 19.3633C10.5131 19.3867 11.1147 19.3437 11.7905 19.2148C15.8217 18.4492 18.9194 15.0703 19.3412 10.9844C19.4076 10.332 19.3686 9.00781 19.2631 8.41797C18.728 5.41406 16.8842 2.92969 14.1967 1.58984C13.0444 1.01172 11.9155 0.710936 10.5873 0.624998C9.97014 0.585936 9.98967 0.585936 9.33733 0.628904ZM10.935 3.10547C12.5248 3.33203 13.9584 4.07422 15.0522 5.23047C17.6381 7.98047 17.5756 12.2344 14.9037 14.9023C13.3295 16.4805 11.0561 17.2187 8.88811 16.8555C5.42326 16.2773 2.91545 13.2109 3.05998 9.72656C3.08342 9.16016 3.14201 8.75391 3.26311 8.28125C3.97014 5.55859 6.24748 3.51562 9.03655 3.10937C9.52483 3.03515 10.4389 3.03515 10.935 3.10547Z" fill="#625B5A"/>
<path d="M9.33781 4.14453C8.66203 4.21875 8.00969 4.41406 7.37688 4.72656C4.75188 6.03515 3.49406 9.05469 4.41985 11.8477C5.16985 14.1172 7.20891 15.6992 9.58 15.8555C11.3261 15.9727 12.9159 15.3828 14.1464 14.1641C15.7363 12.5937 16.287 10.2773 15.5839 8.15234C14.705 5.49609 12.1191 3.83594 9.33781 4.14453ZM10.2363 5.54297C10.3105 5.58203 10.4081 5.67578 10.4511 5.74609C10.5253 5.87109 10.5292 5.96094 10.5409 7.66406L10.5527 9.45312H12.3183C14.3378 9.45312 14.2831 9.44531 14.4472 9.77344C14.5253 9.92969 14.5331 9.97265 14.4941 10.1094C14.4355 10.3359 14.2402 10.4961 13.9784 10.5273C13.8652 10.5391 12.8886 10.5469 11.8105 10.5391C9.90422 10.5273 9.84953 10.5234 9.74406 10.4453C9.68547 10.4023 9.59953 10.3164 9.55656 10.2578C9.47453 10.1523 9.47453 10.1016 9.46281 8.05469L9.455 5.95703L9.54094 5.78515C9.68938 5.49609 9.97063 5.39844 10.2363 5.54297Z" fill="#625B5A"/>
</g>
<defs>
<clipPath id="clip0_43_15067">
<rect width="20" height="20" fill="white"/>
</clipPath>
</defs>
</svg>
