<svg width="27" height="27" viewBox="0 0 27 27" fill="none" xmlns="http://www.w3.org/2000/svg">
<path d="M11.4375 25.7391H4.7C3.92993 25.7391 3.54489 25.7391 3.25076 25.5893C2.99204 25.4575 2.7817 25.2473 2.64986 24.9887C2.5 24.6947 2.5 24.3099 2.5 23.5401V21.1817C2.5 20.3082 2.5 19.8713 2.56597 19.507C2.87245 17.8149 4.19733 16.4907 5.89017 16.1843C5.99593 16.1652 6.10759 16.1516 6.23415 16.142C6.54358 16.1183 6.6983 16.1065 6.90496 16.1219C7.11976 16.138 7.2399 16.1592 7.44721 16.2176C7.64665 16.2738 8.00589 16.4365 8.72437 16.7618C9.15218 16.9555 9.59948 17.1138 10.0625 17.233M17.625 6.49758C17.625 9.53381 15.1625 11.9952 12.125 11.9952C9.08743 11.9952 6.625 9.53381 6.625 6.49758C6.625 3.46135 9.08743 1 12.125 1C15.1625 1 17.625 3.46135 17.625 6.49758ZM19.6842 19.1584C18.722 18.0876 17.1175 17.7995 15.9119 18.7801C14.7064 19.7606 14.5366 21.4001 15.4834 22.5599C16.0179 23.2146 17.2878 24.3624 18.2924 25.2379C18.7689 25.6531 19.007 25.8607 19.2952 25.9457C19.5409 26.0181 19.8275 26.0181 20.0732 25.9457C20.3614 25.8607 20.5995 25.6531 21.076 25.2379C22.0805 24.3624 23.3505 23.2146 23.8849 22.5599C24.8318 21.4001 24.6827 19.7503 23.4565 18.7801C22.2301 17.8098 20.6464 18.0876 19.6842 19.1584Z" stroke="white" stroke-width="2" stroke-linecap="round" stroke-linejoin="round"/>
</svg>
