<svg width="27" height="27" viewBox="0 0 27 27" fill="none" xmlns="http://www.w3.org/2000/svg">
<path d="M10.5348 17.7175L16.449 11.9808M13.5871 5.44229L13.4129 5.272C12.9325 4.80255 12.6922 4.56783 12.4119 4.39998C12.1633 4.25115 11.8924 4.14148 11.609 4.075C11.2893 4 10.9496 4 10.2702 4H5.44444C3.88875 4 3.11089 4 2.51669 4.29584C1.99401 4.55606 1.56907 4.97129 1.30276 5.48203C1 6.06264 1 6.82271 1 8.34286V18.6571C1 20.1773 1 20.9374 1.30276 21.518C1.56907 22.0287 1.99401 22.444 2.51669 22.7041C3.11089 23 3.88874 23 5.44444 23H21.5556C23.1112 23 23.8892 23 24.4833 22.7041C25.006 22.444 25.431 22.0287 25.6972 21.518C26 20.9374 26 20.1773 26 18.6571V11.0571C26 9.53701 26 8.77693 25.6972 8.19631C25.431 7.68558 25.006 7.27035 24.4833 7.01013C23.8892 6.71429 23.1112 6.71429 21.5556 6.71429H16.7299C16.0504 6.71429 15.7107 6.71429 15.391 6.63929C15.1076 6.5728 14.8367 6.46313 14.5881 6.31431C14.3078 6.14646 14.0675 5.91174 13.5871 5.44229ZM17.6667 14.8571C17.6667 17.1058 15.8012 18.9286 13.5 18.9286C11.1987 18.9286 9.33333 17.1058 9.33333 14.8571C9.33333 12.6085 11.1987 10.7857 13.5 10.7857C15.8012 10.7857 17.6667 12.6085 17.6667 14.8571Z" stroke="white" stroke-width="2" stroke-linecap="round" stroke-linejoin="round"/>
</svg>
