<svg width="27" height="27" viewBox="0 0 27 27" fill="none" xmlns="http://www.w3.org/2000/svg">
<path d="M9.56939 16.2778C10.1414 17.8961 11.6848 19.0556 13.4989 19.0556C15.3131 19.0556 16.8566 17.8961 17.4285 16.2778M9.33339 10.7222H9.34589M17.6667 10.7222H17.6792M3.77783 10.7222C3.77783 5.35279 8.13062 1 13.5001 1C18.8695 1 23.2223 5.35279 23.2223 10.7222V26L22.0873 25.2433C21.0073 24.5233 20.4674 24.1635 19.8959 24.0618C19.3919 23.9722 18.873 24.0236 18.3963 24.2103C17.8559 24.4219 17.397 24.8808 16.4792 25.7986C16.368 25.9099 16.1877 25.9097 16.0763 25.7986C15.4499 25.1739 15.1039 24.8453 14.7334 24.6617C13.9563 24.2765 13.0438 24.2765 12.2667 24.6617C11.8962 24.8453 11.5502 25.1739 10.9238 25.7986C10.8124 25.9097 10.6321 25.9099 10.5209 25.7986C9.60315 24.8808 9.14428 24.4219 8.60379 24.2103C8.12717 24.0236 7.60822 23.9722 7.10423 24.0618C6.53272 24.1635 5.99276 24.5233 4.91286 25.2433L3.77783 26V10.7222Z" stroke="white" stroke-width="2" stroke-linecap="round" stroke-linejoin="round"/>
</svg>
