<svg width="22" height="16" viewBox="0 0 22 16" fill="none" xmlns="http://www.w3.org/2000/svg">
<path d="M7 13H15M7 13C7 14.1046 6.10457 15 5 15C3.89543 15 3 14.1046 3 13M7 13C7 11.8954 6.10457 11 5 11C3.89543 11 3 11.8954 3 13M15 13C15 14.1046 15.8954 15 17 15C18.1046 15 19 14.1046 19 13M15 13C15 11.8954 15.8954 11 17 11C18.1046 11 19 11.8954 19 13M3 13H2.6C2.03995 13 1.75992 13 1.54601 12.891C1.35785 12.7951 1.20487 12.6422 1.10899 12.454C1 12.2401 1 11.9601 1 11.4V10.2C1 9.0799 1 8.5198 1.21799 8.092C1.40973 7.7157 1.71569 7.4097 2.09202 7.218C2.51984 7 3.0799 7 4.2 7H16.2C16.9432 7 17.3148 7 17.6257 7.0492C19.3373 7.3203 20.6797 8.6627 20.9508 10.3743C21 10.6852 21 11.0568 21 11.8C21 11.9858 21 12.0787 20.9877 12.1564C20.9199 12.5843 20.5843 12.9199 20.1564 12.9877C20.0787 13 19.9858 13 19.8 13H19M9 1V7M3 7L3.33152 5.01088C3.56901 3.58593 3.68776 2.87345 4.0433 2.3388C4.35671 1.8675 4.79705 1.49447 5.31346 1.26281C5.8993 1 6.6216 1 8.06621 1H11.4311C12.3703 1 12.8399 1 13.2662 1.12945C13.6436 1.24406 13.9946 1.43194 14.2993 1.68236C14.6435 1.96523 14.904 2.35597 15.425 3.13744L18 7" stroke="#625B5A" stroke-width="1.5" stroke-linecap="round" stroke-linejoin="round"/>
</svg>
