<svg width="27" height="27" viewBox="0 0 27 27" fill="none" xmlns="http://www.w3.org/2000/svg">
<path d="M9.1875 13.5313L12.0625 16.3372L17.8125 10.7253M25 13.5313C25 19.7901 17.1512 24.3253 14.422 25.7132C14.1269 25.8634 13.9793 25.9384 13.7746 25.9773C13.615 26.0076 13.385 26.0076 13.2254 25.9773C13.0207 25.9384 12.8731 25.8634 12.578 25.7132C9.84869 24.3253 2 19.7901 2 13.5313V8.2247C2 7.10302 2 6.54218 2.18797 6.06008C2.35401 5.63418 2.62385 5.25418 2.97414 4.95289C3.37066 4.61184 3.90871 4.41492 4.98482 4.02107L12.6924 1.20017C12.9913 1.09079 13.1406 1.03611 13.2944 1.01442C13.4307 0.995195 13.5693 0.995195 13.7056 1.01442C13.8594 1.03611 14.0087 1.09079 14.3076 1.20017L22.0152 4.02107C23.0913 4.41492 23.6293 4.61184 24.0258 4.95289C24.3761 5.25418 24.6459 5.63418 24.812 6.06008C25 6.54218 25 7.10302 25 8.2247V13.5313Z" stroke="white" stroke-width="2" stroke-linecap="round" stroke-linejoin="round"/>
</svg>
