<svg width="32" height="32" viewBox="0 0 32 32" fill="none" xmlns="http://www.w3.org/2000/svg">
<path fill-rule="evenodd" clip-rule="evenodd" d="M3.46561 7.99835C8.09783 7.94075 12.5517 6.20389 16 3.11035C19.4481 6.20447 23.902 7.94191 28.5344 7.99995C28.7104 9.03995 28.8 10.112 28.8 11.2016C28.8 19.5616 23.456 26.6736 16 29.3088C8.54401 26.672 3.20001 19.56 3.20001 11.2C3.20001 10.1088 3.29121 9.03995 3.46561 7.99835ZM21.9312 13.9312C22.2227 13.6294 22.3839 13.2252 22.3803 12.8057C22.3766 12.3862 22.2084 11.9849 21.9117 11.6882C21.6151 11.3916 21.2138 11.2233 20.7943 11.2197C20.3747 11.216 19.9706 11.3773 19.6688 11.6688L14.4 16.9376L12.3312 14.8688C12.0294 14.5773 11.6253 14.416 11.2058 14.4197C10.7863 14.4233 10.385 14.5916 10.0883 14.8882C9.79165 15.1849 9.62338 15.5862 9.61973 16.0057C9.61609 16.4252 9.77736 16.8294 10.0688 17.1312L13.2688 20.3312C13.5689 20.6311 13.9757 20.7996 14.4 20.7996C14.8243 20.7996 15.2312 20.6311 15.5312 20.3312L21.9312 13.9312Z" fill="url(#paint0_linear_20_3484)"/>
<defs>
<linearGradient id="paint0_linear_20_3484" x1="16" y1="3.11035" x2="16" y2="29.3088" gradientUnits="userSpaceOnUse">
<stop stop-color="#C2ACA8"/>
<stop offset="0.432364" stop-color="#C7C5C8"/>
<stop offset="1" stop-color="#CAC5CC"/>
</linearGradient>
</defs>
</svg>
