<svg width="32" height="32" viewBox="0 0 32 32" fill="none" xmlns="http://www.w3.org/2000/svg">
<path d="M25.325 4H24.0125C24.95 4.35625 25.4375 5.2875 25.4375 6.66875V25.3375C25.4375 26.7188 25 27.6688 24.0125 28.0063H25.325C26.8062 28.0063 28 26.8062 28 25.3375V6.66875C28 5.2 26.8062 4 25.325 4Z" fill="url(#paint0_linear_20_3496)"/>
<path d="M21.5938 4.0125C21.5063 4.00625 21.4187 4 21.3312 4H6.66875C5.2 4 4 5.2 4 6.66875V25.3375C4 26.8062 5.2 28.0063 6.66875 28.0063H21.3375C21.425 28.0063 21.5125 28 21.6 27.9937C22.9438 27.8625 24.0063 26.7188 24.0063 25.3375V6.66875C24 5.2875 22.9375 4.14375 21.5938 4.0125ZM13 16L9.5 14L6 16V6H13V16Z" fill="url(#paint1_linear_20_3496)"/>
<defs>
<linearGradient id="paint0_linear_20_3496" x1="26.0062" y1="4" x2="26.0062" y2="28.0063" gradientUnits="userSpaceOnUse">
<stop stop-color="#C2ACA8"/>
<stop offset="0.432364" stop-color="#C7C5C8"/>
<stop offset="1" stop-color="#CAC5CC"/>
</linearGradient>
<linearGradient id="paint1_linear_20_3496" x1="14.0031" y1="4" x2="14.0031" y2="28.0063" gradientUnits="userSpaceOnUse">
<stop stop-color="#C2ACA8"/>
<stop offset="0.432364" stop-color="#C7C5C8"/>
<stop offset="1" stop-color="#CAC5CC"/>
</linearGradient>
</defs>
</svg>
