<svg width="114" height="128" viewBox="0 0 114 128" fill="none" xmlns="http://www.w3.org/2000/svg">
<path d="M57 5.5H25.8C18.5193 5.5 14.879 5.5 12.0981 6.91693C9.65198 8.16324 7.66324 10.152 6.41693 12.5981C5 15.379 5 19.0193 5 26.3V101.7C5 108.981 5 112.621 6.41693 115.402C7.66324 117.848 9.65198 119.837 12.0981 121.083C14.879 122.5 18.5193 122.5 25.8 122.5H50.5M57 5.5L95.9999 44.5M57 5.5V34.1C57 37.7403 57 39.5605 57.7085 40.9509C58.3318 42.174 59.3257 43.1683 60.549 43.7916C61.9393 44.5 63.7593 44.5 67.4 44.5H95.9999M95.9999 44.5V57.5M31 96.5H37.5M31 70.5H50.5M31 44.5H37.5M86.2343 88.1273C81.6857 83.0632 74.1008 81.7008 68.4016 86.3385C62.7031 90.9756 61.9003 98.7295 66.3762 104.214C68.9028 107.311 74.9061 112.739 79.655 116.879C81.9073 118.843 83.0331 119.825 84.3955 120.227C85.557 120.569 86.9116 120.569 88.0732 120.227C89.4356 119.825 90.5614 118.843 92.8136 116.879C97.5625 112.739 103.566 107.311 106.092 104.214C110.568 98.7295 109.864 90.9269 104.067 86.3385C98.2697 81.7495 90.783 83.0632 86.2343 88.1273Z" stroke="#F3EEE9" stroke-width="10" stroke-linecap="round" stroke-linejoin="round"/>
</svg>
