<svg width="16" height="16" viewBox="0 0 16 16" fill="none" xmlns="http://www.w3.org/2000/svg">
  <g opacity="0.6" clip-path="url(#clip0_30_4627)">
    <path d="M7.57969 0.0437498C7.19219 0.171875 7.26719 0.0999994 3.72656 3.63437C1.86406 5.49375 0.295314 7.0875 0.235939 7.175C-0.00156124 7.52812 -0.0703112 8.06562 0.0640638 8.47187C0.267189 9.075 0.748439 9.43125 1.43906 9.4875L1.68594 9.50938L1.69531 12.0594C1.70469 14.5594 1.70781 14.6125 1.77031 14.7812C2.00469 15.4 2.39531 15.7812 2.96719 15.95C3.11406 15.9937 3.34844 16 4.63906 16C6.08281 16 6.14531 15.9969 6.24531 15.9375C6.30156 15.9031 6.37344 15.8312 6.40781 15.775C6.46719 15.675 6.47031 15.6125 6.47031 13.6875C6.47031 12.3344 6.48281 11.6625 6.50469 11.5781C6.55781 11.3906 6.70469 11.2 6.87031 11.1031L7.01719 11.0156H8.00469H8.99219L9.14532 11.1094C9.31719 11.2156 9.47969 11.4562 9.51406 11.6469C9.52344 11.7125 9.53281 12.6406 9.53281 13.7125C9.53281 15.8219 9.52656 15.7406 9.70469 15.9062L9.78907 15.9844L11.2922 15.9937C12.2984 16 12.8516 15.9906 12.9609 15.9688C13.3922 15.8781 13.8922 15.4969 14.0891 15.1094C14.3078 14.6719 14.2953 14.85 14.3078 12.0438L14.3172 9.50625L14.5734 9.48438C15.2016 9.43125 15.6141 9.15625 15.8734 8.625C15.9828 8.39375 15.9859 8.38438 15.9859 8C15.9859 7.6125 15.9859 7.60625 15.8672 7.35938C15.7484 7.10938 15.7453 7.10625 12.3203 3.68125C8.89219 0.253125 8.89219 0.253125 8.64219 0.134375C8.40469 0.0218744 8.37344 0.015625 8.04844 0.00937462C7.82656 0.00312519 7.66094 0.015625 7.57969 0.0437498Z" fill="white" />
  </g>
  <defs>
    <clipPath id="clip0_30_4627">
      <rect width="16" height="16" fill="white" />
    </clipPath>
  </defs>
</svg>