<svg width="22" height="23" viewBox="0 0 22 23" fill="none" xmlns="http://www.w3.org/2000/svg">
<path d="M11 22.5C15.25 18.1 19.5 14.16 19.5 9.3C19.5 4.43989 15.6944 0.5 11 0.5C6.30558 0.5 2.5 4.43989 2.5 9.3C2.5 14.16 6.75 18.1 11 22.5Z" fill="#E2D7D2"/>
<path d="M11 12.7222C13.0119 12.7222 14.6429 11.0807 14.6429 9.05556C14.6429 7.03052 13.0119 5.38889 11 5.38889C8.98805 5.38889 7.35714 7.03052 7.35714 9.05556C7.35714 11.0807 8.98805 12.7222 11 12.7222Z" fill="#E2D7D2"/>
<path d="M11 22.5C15.25 18.1 19.5 14.16 19.5 9.3C19.5 4.43989 15.6944 0.5 11 0.5C6.30558 0.5 2.5 4.43989 2.5 9.3C2.5 14.16 6.75 18.1 11 22.5Z" stroke="#37384C" stroke-linecap="round" stroke-linejoin="round"/>
<path d="M11 12.7222C13.0119 12.7222 14.6429 11.0807 14.6429 9.05556C14.6429 7.03052 13.0119 5.38889 11 5.38889C8.98805 5.38889 7.35714 7.03052 7.35714 9.05556C7.35714 11.0807 8.98805 12.7222 11 12.7222Z" stroke="#37384C" stroke-linecap="round" stroke-linejoin="round"/>
</svg>
