<svg width="23" height="23" viewBox="0 0 23 23" fill="none" xmlns="http://www.w3.org/2000/svg">
<path d="M0.833374 6.64286L7.19161 11.0547C8.68848 12.0933 9.43696 12.6126 10.2458 12.8145C10.9607 12.9927 11.706 12.9927 12.4209 12.8145C13.2298 12.6126 13.9783 12.0933 15.4752 11.0547L21.8334 6.64286M4.56671 20H18.1C19.4068 20 20.0603 20 20.5594 19.7353C20.9984 19.5025 21.3554 19.1309 21.579 18.674C21.8334 18.1545 21.8334 17.4744 21.8334 16.1143V6.88571C21.8334 5.52559 21.8334 4.84552 21.579 4.32602C21.3554 3.86905 20.9984 3.49753 20.5594 3.2647C20.0603 3 19.4068 3 18.1 3H4.56671C3.25992 3 2.60652 3 2.1074 3.2647C1.66835 3.49753 1.31139 3.86905 1.0877 4.32602C0.833374 4.84552 0.833374 5.52558 0.833374 6.88571V16.1143C0.833374 17.4744 0.833374 18.1545 1.0877 18.674C1.31139 19.1309 1.66835 19.5025 2.1074 19.7353C2.60652 20 3.25991 20 4.56671 20Z" fill="#E2D7D2"/>
<path d="M0.833374 6.64286L7.19161 11.0547C8.68848 12.0933 9.43696 12.6126 10.2458 12.8145C10.9607 12.9927 11.706 12.9927 12.4209 12.8145C13.2298 12.6126 13.9783 12.0933 15.4752 11.0547L21.8334 6.64286M4.56671 20H18.1C19.4068 20 20.0603 20 20.5594 19.7353C20.9984 19.5025 21.3554 19.1309 21.579 18.674C21.8334 18.1545 21.8334 17.4744 21.8334 16.1143V6.88571C21.8334 5.52559 21.8334 4.84552 21.579 4.32602C21.3554 3.86905 20.9984 3.49753 20.5594 3.2647C20.0603 3 19.4068 3 18.1 3H4.56671C3.25992 3 2.60652 3 2.1074 3.2647C1.66835 3.49753 1.31139 3.86905 1.0877 4.32602C0.833374 4.84552 0.833374 5.52558 0.833374 6.88571V16.1143C0.833374 17.4744 0.833374 18.1545 1.0877 18.674C1.31139 19.1309 1.66835 19.5025 2.1074 19.7353C2.60652 20 3.25991 20 4.56671 20Z" stroke="#37384C" stroke-width="1.5" stroke-linecap="round" stroke-linejoin="round"/>
</svg>
