<svg width="22" height="22" viewBox="0 0 22 22" fill="none" xmlns="http://www.w3.org/2000/svg">
<path d="M2 4.5C2 13.0604 8.93959 20 17.5 20C17.8862 20 18.2691 19.9859 18.6483 19.9581C19.0834 19.9262 19.3009 19.9103 19.499 19.7963C19.663 19.7019 19.8185 19.5345 19.9007 19.364C20 19.1582 20 18.9181 20 18.438V15.6207C20 15.2169 20 15.015 19.9335 14.842C19.8749 14.6891 19.7795 14.553 19.6559 14.4456C19.516 14.324 19.3262 14.255 18.9468 14.117L15.74 12.9509C15.2985 12.7904 15.0777 12.7101 14.8683 12.7237C14.6836 12.7357 14.5059 12.7988 14.3549 12.9058C14.1837 13.0271 14.0629 13.2285 13.8212 13.6314L13 15C10.3501 13.7999 8.2019 11.6489 7 9L8.36863 8.17882C8.77145 7.93713 8.97286 7.81628 9.0942 7.64506C9.2012 7.49408 9.2643 7.31637 9.2763 7.1317C9.2899 6.92227 9.2096 6.70153 9.0491 6.26005L7.88299 3.05321C7.745 2.67376 7.67601 2.48403 7.55442 2.3441C7.44701 2.22049 7.31089 2.12515 7.15802 2.06645C6.98496 2 6.78308 2 6.37932 2H3.56201C3.08188 2 2.84181 2 2.63598 2.09925C2.4655 2.18146 2.29814 2.33701 2.2037 2.50103C2.08968 2.69907 2.07375 2.91662 2.04189 3.35173C2.01413 3.73086 2 4.11378 2 4.5Z" fill="#E2D7D2"/>
</svg>
