<svg width="20" height="20" viewBox="0 0 20 20" fill="none" xmlns="http://www.w3.org/2000/svg">
<path d="M8.85725 1C8.25104 1 7.66966 1.23705 7.241 1.65901C6.81235 2.08097 6.57153 2.65326 6.57153 3.25V12.25C6.57153 12.8467 6.81235 13.419 7.241 13.841C7.66966 14.2629 8.25104 14.5 8.85725 14.5H15.7144C16.3206 14.5 16.902 14.2629 17.3306 13.841C17.7593 13.419 18.0001 12.8467 18.0001 12.25V5.96575C18 5.36906 17.7591 4.79686 17.3304 4.375L14.5715 1.65925C14.143 1.23726 13.5617 1.00013 12.9555 1H8.85725Z" fill="#625B5A"/>
<path d="M2 7.75C2 7.15326 2.24082 6.58097 2.66947 6.15901C3.09812 5.73705 3.67951 5.5 4.28571 5.5V16.75H13.4286C13.4286 17.3467 13.1878 17.919 12.7591 18.341C12.3304 18.7629 11.7491 19 11.1429 19H4.28571C3.67951 19 3.09812 18.7629 2.66947 18.341C2.24082 17.919 2 17.3467 2 16.75V7.75Z" fill="#625B5A"/>
</svg>
